solid STL generated by MeshLab
  facet normal  9.721288e-02 -9.952636e-01  0.000000e+00
    outer loop
      vertex   8.392420e-04 -3.418027e-03  4.999992e-03
      vertex   0.000000e+00 -3.500000e-03  4.000000e-03
      vertex   1.734720e-18 -3.500000e-03  3.000000e-03
    endloop
  endfacet
  facet normal  1.079474e-01 -9.897530e-01 -9.346823e-02
    outer loop
      vertex   6.583500e-04 -3.430990e-03  2.957436e-05
      vertex   4.336810e-19 -3.500000e-03  0.000000e+00
      vertex   1.600915e-03 -3.230967e-03 -9.999290e-04
    endloop
  endfacet
  facet normal  7.563761e-02 -9.866306e-01 -1.443571e-01
    outer loop
      vertex   1.600915e-03 -3.230967e-03 -9.999290e-04
      vertex   4.336810e-19 -3.500000e-03  0.000000e+00
      vertex  -8.392425e-04 -3.418026e-03 -9.999922e-04
    endloop
  endfacet
  facet normal -9.721309e-02 -9.952636e-01  0.000000e+00
    outer loop
      vertex  -8.392425e-04 -3.418026e-03 -9.999922e-04
      vertex   4.336810e-19 -3.500000e-03  0.000000e+00
      vertex   1.734720e-18 -3.500000e-03  1.000000e-03
    endloop
  endfacet
  facet normal  2.837913e-01 -9.560202e-01  7.408007e-02
    outer loop
      vertex   1.380520e-03 -3.209253e-03  1.246060e-04
      vertex   6.583500e-04 -3.430990e-03  2.957436e-05
      vertex   1.600915e-03 -3.230967e-03 -9.999290e-04
    endloop
  endfacet
  facet normal  4.767858e-01 -8.720739e-01  1.102836e-01
    outer loop
      vertex   2.075073e-03 -2.807762e-03  2.966735e-04
      vertex   1.380520e-03 -3.209253e-03  1.246060e-04
      vertex   1.600915e-03 -3.230967e-03 -9.999290e-04
    endloop
  endfacet
  facet normal  7.630531e-01  6.463215e-01  4.292964e-03
    outer loop
      vertex   2.540980e-03  2.406950e-03  2.531550e-03
      vertex   2.786330e-03  2.118110e-03  2.407760e-03
      vertex   2.569263e-03  2.397016e-03 -1.000039e-03
    endloop
  endfacet
  facet normal  8.263689e-01  5.630910e-01 -6.551946e-03
    outer loop
      vertex   2.786330e-03  2.118110e-03  2.407760e-03
      vertex   2.999000e-03  1.804440e-03  2.273330e-03
      vertex   2.569263e-03  2.397016e-03 -1.000039e-03
    endloop
  endfacet
  facet normal  8.424681e-01  5.385868e-01 -1.310148e-02
    outer loop
      vertex   2.569263e-03  2.397016e-03 -1.000039e-03
      vertex   2.999000e-03  1.804440e-03  2.273330e-03
      vertex   3.285221e-03  1.277102e-03 -9.999995e-04
    endloop
  endfacet
  facet normal  8.838584e-01  4.677504e-01  1.929544e-03
    outer loop
      vertex   2.999000e-03  1.804440e-03  2.273330e-03
      vertex   3.176510e-03  1.469610e-03  2.129830e-03
      vertex   3.285221e-03  1.277102e-03 -9.999995e-04
    endloop
  endfacet
  facet normal  9.303558e-01  3.665278e-01  9.770526e-03
    outer loop
      vertex   3.176510e-03  1.469610e-03  2.129830e-03
      vertex   3.316790e-03  1.117560e-03  1.978950e-03
      vertex   3.285221e-03  1.277102e-03 -9.999995e-04
    endloop
  endfacet
  facet normal  9.639904e-01  2.659067e-01  4.025176e-03
    outer loop
      vertex   3.316790e-03  1.117560e-03  1.978950e-03
      vertex   3.418170e-03  7.523970e-04  1.822460e-03
      vertex   3.285221e-03  1.277102e-03 -9.999995e-04
    endloop
  endfacet
  facet normal  9.856542e-01  1.680932e-01 -1.517914e-02
    outer loop
      vertex   3.418170e-03  7.523970e-04  1.822460e-03
      vertex   3.479480e-03  3.784170e-04  1.662180e-03
      vertex   3.285221e-03  1.277102e-03 -9.999995e-04
    endloop
  endfacet
  facet normal  9.877760e-01  1.546061e-01 -1.988687e-02
    outer loop
      vertex   3.285221e-03  1.277102e-03 -9.999995e-04
      vertex   3.479480e-03  3.784170e-04  1.662180e-03
      vertex   3.518272e-03 -2.118567e-04 -9.999996e-04
    endloop
  endfacet
  facet normal  9.985935e-01  5.294478e-02  2.811684e-03
    outer loop
      vertex   3.479480e-03  3.784170e-04  1.662180e-03
      vertex   3.500000e-03 -8.673620e-19  1.500000e-03
      vertex   3.518272e-03 -2.118567e-04 -9.999996e-04
    endloop
  endfacet
  facet normal  9.981575e-01 -5.941039e-02  1.232978e-02
    outer loop
      vertex   3.500000e-03 -8.673620e-19  1.500000e-03
      vertex   3.479480e-03 -3.784170e-04  1.337820e-03
      vertex   3.518272e-03 -2.118567e-04 -9.999996e-04
    endloop
  endfacet
  facet normal  9.864922e-01 -1.637408e-01  4.703093e-03
    outer loop
      vertex   3.479480e-03 -3.784170e-04  1.337820e-03
      vertex   3.418170e-03 -7.523970e-04  1.177540e-03
      vertex   3.518272e-03 -2.118567e-04 -9.999996e-04
    endloop
  endfacet
  facet normal  9.563138e-01 -2.909722e-01 -2.826743e-02
    outer loop
      vertex   3.418170e-03 -7.523970e-04  1.177540e-03
      vertex   3.246650e-03 -1.293585e-03  9.456080e-04
      vertex   3.518272e-03 -2.118567e-04 -9.999996e-04
    endloop
  endfacet
  facet normal  9.620090e-01 -2.724760e-01 -1.718876e-02
    outer loop
      vertex   3.518272e-03 -2.118567e-04 -9.999996e-04
      vertex   3.246650e-03 -1.293585e-03  9.456080e-04
      vertex   3.106793e-03 -1.664630e-03 -9.999997e-04
    endloop
  endfacet
  facet normal  8.781617e-01 -4.775469e-01  2.794728e-02
    outer loop
      vertex   3.246650e-03 -1.293585e-03  9.456080e-04
      vertex   2.892665e-03 -1.961275e-03  6.594540e-04
      vertex   3.106793e-03 -1.664630e-03 -9.999997e-04
    endloop
  endfacet
  facet normal  7.868209e-01 -6.171188e-01 -8.788914e-03
    outer loop
      vertex   2.892665e-03 -1.961275e-03  6.594540e-04
      vertex   2.540980e-03 -2.406950e-03  4.684510e-04
      vertex   3.106793e-03 -1.664630e-03 -9.999997e-04
    endloop
  endfacet
  facet normal  7.189894e-01 -6.912404e-01 -7.239472e-02
    outer loop
      vertex   3.106793e-03 -1.664630e-03 -9.999997e-04
      vertex   2.540980e-03 -2.406950e-03  4.684510e-04
      vertex   1.600915e-03 -3.230967e-03 -9.999290e-04
    endloop
  endfacet
  facet normal  6.499297e-01 -7.599236e-01  1.036093e-02
    outer loop
      vertex   2.540980e-03 -2.406950e-03  4.684510e-04
      vertex   2.075073e-03 -2.807762e-03  2.966735e-04
      vertex   1.600915e-03 -3.230967e-03 -9.999290e-04
    endloop
  endfacet
  facet normal  6.221455e-01  7.828760e-01 -6.324816e-03
    outer loop
      vertex   1.803805e-03  3.005320e-03 -1.000000e-03
      vertex   2.265850e-03  2.667570e-03  2.643240e-03
      vertex   2.569263e-03  2.397016e-03 -1.000039e-03
    endloop
  endfacet
  facet normal  6.884423e-01  7.252828e-01  3.473327e-03
    outer loop
      vertex   2.569263e-03  2.397016e-03 -1.000039e-03
      vertex   2.265850e-03  2.667570e-03  2.643240e-03
      vertex   2.540980e-03  2.406950e-03  2.531550e-03
    endloop
  endfacet
  facet normal  5.920794e-01  8.058795e-01 -3.791846e-04
    outer loop
      vertex   1.803805e-03  3.005320e-03 -1.000000e-03
      vertex   1.884295e-03  2.947955e-03  2.763410e-03
      vertex   2.265850e-03  2.667570e-03  2.643240e-03
    endloop
  endfacet
  facet normal  3.933680e-01  9.193655e-01 -5.362813e-03
    outer loop
      vertex   8.392427e-04  3.418026e-03 -9.999922e-04
      vertex   1.554520e-03  3.134400e-03  2.843315e-03
      vertex   1.803805e-03  3.005320e-03 -1.000000e-03
    endloop
  endfacet
  facet normal  4.926575e-01  8.702191e-01  2.727916e-03
    outer loop
      vertex   1.803805e-03  3.005320e-03 -1.000000e-03
      vertex   1.554520e-03  3.134400e-03  2.843315e-03
      vertex   1.884295e-03  2.947955e-03  2.763410e-03
    endloop
  endfacet
  facet normal  3.943003e-01  9.189647e-01 -5.565889e-03
    outer loop
      vertex   8.392427e-04  3.418026e-03 -9.999922e-04
      vertex   1.206520e-03  3.284105e-03  2.907475e-03
      vertex   1.554520e-03  3.134400e-03  2.843315e-03
    endloop
  endfacet
  facet normal  2.879586e-01  9.576256e-01  5.754591e-03
    outer loop
      vertex   8.392427e-04  3.418026e-03 -9.999922e-04
      vertex   7.530017e-04  3.420128e-03  2.965773e-03
      vertex   1.206520e-03  3.284105e-03  2.907475e-03
    endloop
  endfacet
  facet normal  9.721307e-02  9.952636e-01  0.000000e+00
    outer loop
      vertex   8.392427e-04  3.418026e-03 -9.999922e-04
      vertex   0.000000e+00  3.500000e-03  0.000000e+00
      vertex   0.000000e+00  3.500000e-03  1.000000e-03
    endloop
  endfacet
  facet normal  1.034276e-01  9.944712e-01 -1.815756e-02
    outer loop
      vertex   6.583500e-04  3.430990e-03  3.970427e-03
      vertex   0.000000e+00  3.500000e-03  4.000000e-03
      vertex   7.851517e-04  3.436601e-03  4.999987e-03
    endloop
  endfacet
  facet normal -1.140354e-02  9.973261e-01  7.218447e-02
    outer loop
      vertex   7.851517e-04  3.436601e-03  4.999987e-03
      vertex   0.000000e+00  3.500000e-03  4.000000e-03
      vertex  -8.392418e-04  3.418027e-03  4.999992e-03
    endloop
  endfacet
  facet normal -9.721291e-02  9.952636e-01  0.000000e+00
    outer loop
      vertex  -8.392418e-04  3.418027e-03  4.999992e-03
      vertex   0.000000e+00  3.500000e-03  4.000000e-03
      vertex  -1.734720e-18  3.500000e-03  3.000000e-03
    endloop
  endfacet
  facet normal  2.883736e-01  9.566513e-01 -4.072963e-02
    outer loop
      vertex   1.380520e-03  3.209253e-03  3.875395e-03
      vertex   6.583500e-04  3.430990e-03  3.970427e-03
      vertex   7.851517e-04  3.436601e-03  4.999987e-03
    endloop
  endfacet
  facet normal  4.264029e-01  9.035065e-01  4.308800e-02
    outer loop
      vertex   2.146433e-03  2.794154e-03  4.999993e-03
      vertex   1.380520e-03  3.209253e-03  3.875395e-03
      vertex   7.851517e-04  3.436601e-03  4.999987e-03
    endloop
  endfacet
  facet normal  4.969827e-01  8.675686e-01 -1.824569e-02
    outer loop
      vertex   2.075073e-03  2.807762e-03  3.703325e-03
      vertex   1.380520e-03  3.209253e-03  3.875395e-03
      vertex   2.146433e-03  2.794154e-03  4.999993e-03
    endloop
  endfacet
  facet normal  7.630531e-01 -6.463215e-01 -4.292913e-03
    outer loop
      vertex   2.540980e-03 -2.406950e-03  1.468450e-03
      vertex   2.786330e-03 -2.118110e-03  1.592240e-03
      vertex   2.569263e-03 -2.397016e-03  5.000039e-03
    endloop
  endfacet
  facet normal  8.263688e-01 -5.630910e-01  6.551998e-03
    outer loop
      vertex   2.786330e-03 -2.118110e-03  1.592240e-03
      vertex   2.999000e-03 -1.804440e-03  1.726670e-03
      vertex   2.569263e-03 -2.397016e-03  5.000039e-03
    endloop
  endfacet
  facet normal  8.424681e-01 -5.385869e-01  1.310152e-02
    outer loop
      vertex   2.569263e-03 -2.397016e-03  5.000039e-03
      vertex   2.999000e-03 -1.804440e-03  1.726670e-03
      vertex   3.285221e-03 -1.277101e-03  4.999999e-03
    endloop
  endfacet
  facet normal  8.838585e-01 -4.677505e-01 -1.929533e-03
    outer loop
      vertex   2.999000e-03 -1.804440e-03  1.726670e-03
      vertex   3.176510e-03 -1.469610e-03  1.870170e-03
      vertex   3.285221e-03 -1.277101e-03  4.999999e-03
    endloop
  endfacet
  facet normal  9.303558e-01 -3.665278e-01 -9.770559e-03
    outer loop
      vertex   3.176510e-03 -1.469610e-03  1.870170e-03
      vertex   3.316790e-03 -1.117560e-03  2.021050e-03
      vertex   3.285221e-03 -1.277101e-03  4.999999e-03
    endloop
  endfacet
  facet normal  9.639904e-01 -2.659067e-01 -4.025242e-03
    outer loop
      vertex   3.316790e-03 -1.117560e-03  2.021050e-03
      vertex   3.418170e-03 -7.523970e-04  2.177540e-03
      vertex   3.285221e-03 -1.277101e-03  4.999999e-03
    endloop
  endfacet
  facet normal  9.856542e-01 -1.680932e-01  1.517904e-02
    outer loop
      vertex   3.418170e-03 -7.523970e-04  2.177540e-03
      vertex   3.479480e-03 -3.784170e-04  2.337820e-03
      vertex   3.285221e-03 -1.277101e-03  4.999999e-03
    endloop
  endfacet
  facet normal  9.877761e-01 -1.546059e-01  1.988682e-02
    outer loop
      vertex   3.285221e-03 -1.277101e-03  4.999999e-03
      vertex   3.479480e-03 -3.784170e-04  2.337820e-03
      vertex   3.518272e-03  2.118566e-04  4.999999e-03
    endloop
  endfacet
  facet normal  9.985935e-01 -5.294477e-02 -2.811688e-03
    outer loop
      vertex   3.479480e-03 -3.784170e-04  2.337820e-03
      vertex   3.500000e-03  1.301040e-18  2.500000e-03
      vertex   3.518272e-03  2.118566e-04  4.999999e-03
    endloop
  endfacet
  facet normal  9.981575e-01  5.941038e-02 -1.232978e-02
    outer loop
      vertex   3.500000e-03  1.301040e-18  2.500000e-03
      vertex   3.479480e-03  3.784170e-04  2.662180e-03
      vertex   3.518272e-03  2.118566e-04  4.999999e-03
    endloop
  endfacet
  facet normal  9.864922e-01  1.637408e-01 -4.703084e-03
    outer loop
      vertex   3.479480e-03  3.784170e-04  2.662180e-03
      vertex   3.418170e-03  7.523970e-04  2.822460e-03
      vertex   3.518272e-03  2.118566e-04  4.999999e-03
    endloop
  endfacet
  facet normal  9.563138e-01  2.909723e-01  2.826747e-02
    outer loop
      vertex   3.418170e-03  7.523970e-04  2.822460e-03
      vertex   3.246650e-03  1.293585e-03  3.054390e-03
      vertex   3.518272e-03  2.118566e-04  4.999999e-03
    endloop
  endfacet
  facet normal  9.620090e-01  2.724760e-01  1.718873e-02
    outer loop
      vertex   3.518272e-03  2.118566e-04  4.999999e-03
      vertex   3.246650e-03  1.293585e-03  3.054390e-03
      vertex   3.106794e-03  1.664629e-03  4.999999e-03
    endloop
  endfacet
  facet normal  8.781617e-01  4.775469e-01 -2.794725e-02
    outer loop
      vertex   3.246650e-03  1.293585e-03  3.054390e-03
      vertex   2.892665e-03  1.961275e-03  3.340545e-03
      vertex   3.106794e-03  1.664629e-03  4.999999e-03
    endloop
  endfacet
  facet normal  7.868209e-01  6.171187e-01  8.788960e-03
    outer loop
      vertex   2.892665e-03  1.961275e-03  3.340545e-03
      vertex   2.540980e-03  2.406950e-03  3.531550e-03
      vertex   3.106794e-03  1.664629e-03  4.999999e-03
    endloop
  endfacet
  facet normal  7.614138e-01  6.473804e-01  3.387635e-02
    outer loop
      vertex   3.106794e-03  1.664629e-03  4.999999e-03
      vertex   2.540980e-03  2.406950e-03  3.531550e-03
      vertex   2.146433e-03  2.794154e-03  4.999993e-03
    endloop
  endfacet
  facet normal  6.460587e-01  7.627904e-01 -2.754948e-02
    outer loop
      vertex   2.540980e-03  2.406950e-03  3.531550e-03
      vertex   2.075073e-03  2.807762e-03  3.703325e-03
      vertex   2.146433e-03  2.794154e-03  4.999993e-03
    endloop
  endfacet
  facet normal  6.221458e-01 -7.828759e-01  6.324828e-03
    outer loop
      vertex   1.803806e-03 -3.005320e-03  5.000000e-03
      vertex   2.265850e-03 -2.667570e-03  1.356760e-03
      vertex   2.569263e-03 -2.397016e-03  5.000039e-03
    endloop
  endfacet
  facet normal  6.884423e-01 -7.252828e-01 -3.473281e-03
    outer loop
      vertex   2.569263e-03 -2.397016e-03  5.000039e-03
      vertex   2.265850e-03 -2.667570e-03  1.356760e-03
      vertex   2.540980e-03 -2.406950e-03  1.468450e-03
    endloop
  endfacet
  facet normal  5.920794e-01 -8.058795e-01  3.791618e-04
    outer loop
      vertex   1.803806e-03 -3.005320e-03  5.000000e-03
      vertex   1.884295e-03 -2.947955e-03  1.236590e-03
      vertex   2.265850e-03 -2.667570e-03  1.356760e-03
    endloop
  endfacet
  facet normal  3.933680e-01 -9.193653e-01  5.362821e-03
    outer loop
      vertex   8.392420e-04 -3.418027e-03  4.999992e-03
      vertex   1.554520e-03 -3.134400e-03  1.156685e-03
      vertex   1.803806e-03 -3.005320e-03  5.000000e-03
    endloop
  endfacet
  facet normal  4.926575e-01 -8.702191e-01 -2.727922e-03
    outer loop
      vertex   1.803806e-03 -3.005320e-03  5.000000e-03
      vertex   1.554520e-03 -3.134400e-03  1.156685e-03
      vertex   1.884295e-03 -2.947955e-03  1.236590e-03
    endloop
  endfacet
  facet normal  3.943003e-01 -9.189648e-01  5.565902e-03
    outer loop
      vertex   8.392420e-04 -3.418027e-03  4.999992e-03
      vertex   1.206520e-03 -3.284105e-03  1.092525e-03
      vertex   1.554520e-03 -3.134400e-03  1.156685e-03
    endloop
  endfacet
  facet normal  2.879586e-01 -9.576256e-01 -5.754601e-03
    outer loop
      vertex   8.392420e-04 -3.418027e-03  4.999992e-03
      vertex   7.530017e-04 -3.420128e-03  1.034227e-03
      vertex   1.206520e-03 -3.284105e-03  1.092525e-03
    endloop
  endfacet
  facet normal  1.140368e-02 -9.973261e-01  7.218433e-02
    outer loop
      vertex   8.392420e-04 -3.418027e-03  4.999992e-03
      vertex  -7.851510e-04 -3.436601e-03  4.999987e-03
      vertex   0.000000e+00 -3.500000e-03  4.000000e-03
    endloop
  endfacet
  facet normal -1.034276e-01 -9.944712e-01 -1.815771e-02
    outer loop
      vertex   0.000000e+00 -3.500000e-03  4.000000e-03
      vertex  -7.851510e-04 -3.436601e-03  4.999987e-03
      vertex  -6.583500e-04 -3.430990e-03  3.970427e-03
    endloop
  endfacet
  facet normal -2.883736e-01 -9.566513e-01 -4.072964e-02
    outer loop
      vertex  -6.583500e-04 -3.430990e-03  3.970427e-03
      vertex  -7.851510e-04 -3.436601e-03  4.999987e-03
      vertex  -1.380520e-03 -3.209253e-03  3.875395e-03
    endloop
  endfacet
  facet normal -4.264030e-01 -9.035064e-01  4.308809e-02
    outer loop
      vertex  -7.851510e-04 -3.436601e-03  4.999987e-03
      vertex  -2.146433e-03 -2.794154e-03  4.999993e-03
      vertex  -1.380520e-03 -3.209253e-03  3.875395e-03
    endloop
  endfacet
  facet normal -4.969828e-01 -8.675686e-01 -1.824552e-02
    outer loop
      vertex  -1.380520e-03 -3.209253e-03  3.875395e-03
      vertex  -2.146433e-03 -2.794154e-03  4.999993e-03
      vertex  -2.075073e-03 -2.807762e-03  3.703325e-03
    endloop
  endfacet
  facet normal -6.460587e-01 -7.627904e-01 -2.754933e-02
    outer loop
      vertex  -2.075073e-03 -2.807762e-03  3.703325e-03
      vertex  -2.146433e-03 -2.794154e-03  4.999993e-03
      vertex  -2.540980e-03 -2.406950e-03  3.531550e-03
    endloop
  endfacet
  facet normal -7.614138e-01 -6.473805e-01  3.387639e-02
    outer loop
      vertex  -2.146433e-03 -2.794154e-03  4.999993e-03
      vertex  -3.106794e-03 -1.664629e-03  4.999999e-03
      vertex  -2.540980e-03 -2.406950e-03  3.531550e-03
    endloop
  endfacet
  facet normal -7.868209e-01 -6.171188e-01  8.788954e-03
    outer loop
      vertex  -2.540980e-03 -2.406950e-03  3.531550e-03
      vertex  -3.106794e-03 -1.664629e-03  4.999999e-03
      vertex  -2.892665e-03 -1.961275e-03  3.340545e-03
    endloop
  endfacet
  facet normal -8.781617e-01 -4.775469e-01 -2.794725e-02
    outer loop
      vertex  -2.892665e-03 -1.961275e-03  3.340545e-03
      vertex  -3.106794e-03 -1.664629e-03  4.999999e-03
      vertex  -3.246650e-03 -1.293585e-03  3.054390e-03
    endloop
  endfacet
  facet normal -9.620090e-01 -2.724760e-01  1.718873e-02
    outer loop
      vertex  -3.106794e-03 -1.664629e-03  4.999999e-03
      vertex  -3.518272e-03 -2.118566e-04  4.999999e-03
      vertex  -3.246650e-03 -1.293585e-03  3.054390e-03
    endloop
  endfacet
  facet normal -9.563138e-01 -2.909723e-01  2.826748e-02
    outer loop
      vertex  -3.246650e-03 -1.293585e-03  3.054390e-03
      vertex  -3.518272e-03 -2.118566e-04  4.999999e-03
      vertex  -3.418170e-03 -7.523970e-04  2.822460e-03
    endloop
  endfacet
  facet normal -9.864922e-01 -1.637408e-01 -4.703084e-03
    outer loop
      vertex  -3.418170e-03 -7.523970e-04  2.822460e-03
      vertex  -3.518272e-03 -2.118566e-04  4.999999e-03
      vertex  -3.479480e-03 -3.784170e-04  2.662180e-03
    endloop
  endfacet
  facet normal -9.981575e-01 -5.941039e-02 -1.232978e-02
    outer loop
      vertex  -3.479480e-03 -3.784170e-04  2.662180e-03
      vertex  -3.518272e-03 -2.118566e-04  4.999999e-03
      vertex  -3.500000e-03  8.673620e-19  2.500000e-03
    endloop
  endfacet
  facet normal -9.985935e-01  5.294478e-02 -2.811688e-03
    outer loop
      vertex  -3.500000e-03  8.673620e-19  2.500000e-03
      vertex  -3.518272e-03 -2.118566e-04  4.999999e-03
      vertex  -3.479480e-03  3.784170e-04  2.337820e-03
    endloop
  endfacet
  facet normal -9.877761e-01  1.546062e-01  1.988688e-02
    outer loop
      vertex  -3.518272e-03 -2.118566e-04  4.999999e-03
      vertex  -3.285221e-03  1.277102e-03  4.999999e-03
      vertex  -3.479480e-03  3.784170e-04  2.337820e-03
    endloop
  endfacet
  facet normal -9.856542e-01  1.680932e-01  1.517915e-02
    outer loop
      vertex  -3.479480e-03  3.784170e-04  2.337820e-03
      vertex  -3.285221e-03  1.277102e-03  4.999999e-03
      vertex  -3.418170e-03  7.523970e-04  2.177540e-03
    endloop
  endfacet
  facet normal -9.639904e-01  2.659067e-01 -4.025155e-03
    outer loop
      vertex  -3.418170e-03  7.523970e-04  2.177540e-03
      vertex  -3.285221e-03  1.277102e-03  4.999999e-03
      vertex  -3.316790e-03  1.117560e-03  2.021050e-03
    endloop
  endfacet
  facet normal -9.303558e-01  3.665278e-01 -9.770500e-03
    outer loop
      vertex  -3.316790e-03  1.117560e-03  2.021050e-03
      vertex  -3.285221e-03  1.277102e-03  4.999999e-03
      vertex  -3.176510e-03  1.469610e-03  1.870170e-03
    endloop
  endfacet
  facet normal -8.838584e-01  4.677505e-01 -1.929505e-03
    outer loop
      vertex  -3.176510e-03  1.469610e-03  1.870170e-03
      vertex  -3.285221e-03  1.277102e-03  4.999999e-03
      vertex  -2.999000e-03  1.804440e-03  1.726670e-03
    endloop
  endfacet
  facet normal -8.424681e-01  5.385869e-01  1.310154e-02
    outer loop
      vertex  -3.285221e-03  1.277102e-03  4.999999e-03
      vertex  -2.569263e-03  2.397016e-03  5.000039e-03
      vertex  -2.999000e-03  1.804440e-03  1.726670e-03
    endloop
  endfacet
  facet normal -8.263688e-01  5.630910e-01  6.552016e-03
    outer loop
      vertex  -2.999000e-03  1.804440e-03  1.726670e-03
      vertex  -2.569263e-03  2.397016e-03  5.000039e-03
      vertex  -2.786330e-03  2.118110e-03  1.592240e-03
    endloop
  endfacet
  facet normal -7.630531e-01  6.463216e-01 -4.292903e-03
    outer loop
      vertex  -2.786330e-03  2.118110e-03  1.592240e-03
      vertex  -2.569263e-03  2.397016e-03  5.000039e-03
      vertex  -2.540980e-03  2.406950e-03  1.468450e-03
    endloop
  endfacet
  facet normal -6.884423e-01  7.252828e-01 -3.473283e-03
    outer loop
      vertex  -2.540980e-03  2.406950e-03  1.468450e-03
      vertex  -2.569263e-03  2.397016e-03  5.000039e-03
      vertex  -2.265850e-03  2.667570e-03  1.356760e-03
    endloop
  endfacet
  facet normal -6.221457e-01  7.828760e-01  6.324830e-03
    outer loop
      vertex  -2.569263e-03  2.397016e-03  5.000039e-03
      vertex  -1.803805e-03  3.005320e-03  5.000000e-03
      vertex  -2.265850e-03  2.667570e-03  1.356760e-03
    endloop
  endfacet
  facet normal -5.920794e-01  8.058796e-01  3.791875e-04
    outer loop
      vertex  -2.265850e-03  2.667570e-03  1.356760e-03
      vertex  -1.803805e-03  3.005320e-03  5.000000e-03
      vertex  -1.884295e-03  2.947955e-03  1.236590e-03
    endloop
  endfacet
  facet normal -4.926575e-01  8.702191e-01 -2.727915e-03
    outer loop
      vertex  -1.884295e-03  2.947955e-03  1.236590e-03
      vertex  -1.803805e-03  3.005320e-03  5.000000e-03
      vertex  -1.554520e-03  3.134400e-03  1.156685e-03
    endloop
  endfacet
  facet normal -3.933679e-01  9.193655e-01  5.362821e-03
    outer loop
      vertex  -1.803805e-03  3.005320e-03  5.000000e-03
      vertex  -8.392418e-04  3.418027e-03  4.999992e-03
      vertex  -1.554520e-03  3.134400e-03  1.156685e-03
    endloop
  endfacet
  facet normal -3.943003e-01  9.189647e-01  5.565922e-03
    outer loop
      vertex  -1.554520e-03  3.134400e-03  1.156685e-03
      vertex  -8.392418e-04  3.418027e-03  4.999992e-03
      vertex  -1.206520e-03  3.284105e-03  1.092525e-03
    endloop
  endfacet
  facet normal -2.879585e-01  9.576256e-01 -5.754592e-03
    outer loop
      vertex  -1.206520e-03  3.284105e-03  1.092525e-03
      vertex  -8.392418e-04  3.418027e-03  4.999992e-03
      vertex  -7.530015e-04  3.420128e-03  1.034227e-03
    endloop
  endfacet
  facet normal -1.468246e-01  9.891589e-01 -2.668762e-03
    outer loop
      vertex  -7.530015e-04  3.420128e-03  1.034227e-03
      vertex  -8.392418e-04  3.418027e-03  4.999992e-03
      vertex  -2.810676e-04  3.490098e-03  1.004241e-03
    endloop
  endfacet
  facet normal -8.170822e-02  9.966347e-01  6.562314e-03
    outer loop
      vertex  -8.392418e-04  3.418027e-03  4.999992e-03
      vertex  -1.734720e-18  3.500000e-03  3.000000e-03
      vertex  -2.810676e-04  3.490098e-03  1.004241e-03
    endloop
  endfacet
  facet normal -3.520830e-02  9.993800e-01  0.000000e+00
    outer loop
      vertex  -2.810676e-04  3.490098e-03  1.004241e-03
      vertex  -1.734720e-18  3.500000e-03  3.000000e-03
      vertex   0.000000e+00  3.500000e-03  1.000000e-03
    endloop
  endfacet
  facet normal  3.520753e-02  9.993800e-01  3.053761e-17
    outer loop
      vertex  -1.734720e-18  3.500000e-03  3.000000e-03
      vertex   2.810672e-04  3.490098e-03  2.995759e-03
      vertex   0.000000e+00  3.500000e-03  1.000000e-03
    endloop
  endfacet
  facet normal  8.170816e-02  9.966347e-01 -6.562408e-03
    outer loop
      vertex   0.000000e+00  3.500000e-03  1.000000e-03
      vertex   2.810672e-04  3.490098e-03  2.995759e-03
      vertex   8.392427e-04  3.418026e-03 -9.999922e-04
    endloop
  endfacet
  facet normal  1.468249e-01  9.891589e-01  2.668737e-03
    outer loop
      vertex   2.810672e-04  3.490098e-03  2.995759e-03
      vertex   7.530017e-04  3.420128e-03  2.965773e-03
      vertex   8.392427e-04  3.418026e-03 -9.999922e-04
    endloop
  endfacet
  facet normal -7.563770e-02  9.866306e-01 -1.443572e-01
    outer loop
      vertex   8.392427e-04  3.418026e-03 -9.999922e-04
      vertex  -1.600915e-03  3.230967e-03 -9.999290e-04
      vertex   0.000000e+00  3.500000e-03  0.000000e+00
    endloop
  endfacet
  facet normal -1.079474e-01  9.897530e-01 -9.346846e-02
    outer loop
      vertex   0.000000e+00  3.500000e-03  0.000000e+00
      vertex  -1.600915e-03  3.230967e-03 -9.999290e-04
      vertex  -6.583500e-04  3.430990e-03  2.957436e-05
    endloop
  endfacet
  facet normal -2.837913e-01  9.560202e-01  7.407986e-02
    outer loop
      vertex  -6.583500e-04  3.430990e-03  2.957436e-05
      vertex  -1.600915e-03  3.230967e-03 -9.999290e-04
      vertex  -1.380520e-03  3.209253e-03  1.246060e-04
    endloop
  endfacet
  facet normal -4.767858e-01  8.720739e-01  1.102834e-01
    outer loop
      vertex  -1.380520e-03  3.209253e-03  1.246060e-04
      vertex  -1.600915e-03  3.230967e-03 -9.999290e-04
      vertex  -2.075073e-03  2.807762e-03  2.966735e-04
    endloop
  endfacet
  facet normal -6.499296e-01  7.599237e-01  1.036071e-02
    outer loop
      vertex  -2.075073e-03  2.807762e-03  2.966735e-04
      vertex  -1.600915e-03  3.230967e-03 -9.999290e-04
      vertex  -2.540980e-03  2.406950e-03  4.684510e-04
    endloop
  endfacet
  facet normal -7.189893e-01  6.912404e-01 -7.239483e-02
    outer loop
      vertex  -1.600915e-03  3.230967e-03 -9.999290e-04
      vertex  -3.106794e-03  1.664629e-03 -9.999997e-04
      vertex  -2.540980e-03  2.406950e-03  4.684510e-04
    endloop
  endfacet
  facet normal -7.868209e-01  6.171188e-01 -8.788907e-03
    outer loop
      vertex  -2.540980e-03  2.406950e-03  4.684510e-04
      vertex  -3.106794e-03  1.664629e-03 -9.999997e-04
      vertex  -2.892665e-03  1.961275e-03  6.594540e-04
    endloop
  endfacet
  facet normal -8.781617e-01  4.775469e-01  2.794730e-02
    outer loop
      vertex  -2.892665e-03  1.961275e-03  6.594540e-04
      vertex  -3.106794e-03  1.664629e-03 -9.999997e-04
      vertex  -3.246650e-03  1.293585e-03  9.456080e-04
    endloop
  endfacet
  facet normal -9.620090e-01  2.724760e-01 -1.718872e-02
    outer loop
      vertex  -3.106794e-03  1.664629e-03 -9.999997e-04
      vertex  -3.518272e-03  2.118569e-04 -9.999996e-04
      vertex  -3.246650e-03  1.293585e-03  9.456080e-04
    endloop
  endfacet
  facet normal -9.563138e-01  2.909722e-01 -2.826740e-02
    outer loop
      vertex  -3.246650e-03  1.293585e-03  9.456080e-04
      vertex  -3.518272e-03  2.118569e-04 -9.999996e-04
      vertex  -3.418170e-03  7.523970e-04  1.177540e-03
    endloop
  endfacet
  facet normal -9.864922e-01  1.637408e-01  4.703103e-03
    outer loop
      vertex  -3.418170e-03  7.523970e-04  1.177540e-03
      vertex  -3.518272e-03  2.118569e-04 -9.999996e-04
      vertex  -3.479480e-03  3.784170e-04  1.337820e-03
    endloop
  endfacet
  facet normal -9.981575e-01  5.941039e-02  1.232978e-02
    outer loop
      vertex  -3.479480e-03  3.784170e-04  1.337820e-03
      vertex  -3.518272e-03  2.118569e-04 -9.999996e-04
      vertex  -3.500000e-03  0.000000e+00  1.500000e-03
    endloop
  endfacet
  facet normal -9.985935e-01 -5.294478e-02  2.811682e-03
    outer loop
      vertex  -3.500000e-03  0.000000e+00  1.500000e-03
      vertex  -3.518272e-03  2.118569e-04 -9.999996e-04
      vertex  -3.479480e-03 -3.784170e-04  1.662180e-03
    endloop
  endfacet
  facet normal -9.877760e-01 -1.546061e-01 -1.988688e-02
    outer loop
      vertex  -3.518272e-03  2.118569e-04 -9.999996e-04
      vertex  -3.285221e-03 -1.277102e-03 -9.999995e-04
      vertex  -3.479480e-03 -3.784170e-04  1.662180e-03
    endloop
  endfacet
  facet normal -9.856542e-01 -1.680932e-01 -1.517915e-02
    outer loop
      vertex  -3.479480e-03 -3.784170e-04  1.662180e-03
      vertex  -3.285221e-03 -1.277102e-03 -9.999995e-04
      vertex  -3.418170e-03 -7.523970e-04  1.822460e-03
    endloop
  endfacet
  facet normal -9.639904e-01 -2.659067e-01  4.025155e-03
    outer loop
      vertex  -3.418170e-03 -7.523970e-04  1.822460e-03
      vertex  -3.285221e-03 -1.277102e-03 -9.999995e-04
      vertex  -3.316790e-03 -1.117560e-03  1.978950e-03
    endloop
  endfacet
  facet normal -9.303558e-01 -3.665278e-01  9.770500e-03
    outer loop
      vertex  -3.316790e-03 -1.117560e-03  1.978950e-03
      vertex  -3.285221e-03 -1.277102e-03 -9.999995e-04
      vertex  -3.176510e-03 -1.469610e-03  2.129830e-03
    endloop
  endfacet
  facet normal -8.838584e-01 -4.677505e-01  1.929505e-03
    outer loop
      vertex  -3.176510e-03 -1.469610e-03  2.129830e-03
      vertex  -3.285221e-03 -1.277102e-03 -9.999995e-04
      vertex  -2.999000e-03 -1.804440e-03  2.273330e-03
    endloop
  endfacet
  facet normal -8.424681e-01 -5.385869e-01 -1.310153e-02
    outer loop
      vertex  -3.285221e-03 -1.277102e-03 -9.999995e-04
      vertex  -2.569263e-03 -2.397016e-03 -1.000039e-03
      vertex  -2.999000e-03 -1.804440e-03  2.273330e-03
    endloop
  endfacet
  facet normal -8.263689e-01 -5.630910e-01 -6.551996e-03
    outer loop
      vertex  -2.999000e-03 -1.804440e-03  2.273330e-03
      vertex  -2.569263e-03 -2.397016e-03 -1.000039e-03
      vertex  -2.786330e-03 -2.118110e-03  2.407760e-03
    endloop
  endfacet
  facet normal -7.630531e-01 -6.463216e-01  4.292914e-03
    outer loop
      vertex  -2.786330e-03 -2.118110e-03  2.407760e-03
      vertex  -2.569263e-03 -2.397016e-03 -1.000039e-03
      vertex  -2.540980e-03 -2.406950e-03  2.531550e-03
    endloop
  endfacet
  facet normal -6.884423e-01 -7.252828e-01  3.473281e-03
    outer loop
      vertex  -2.540980e-03 -2.406950e-03  2.531550e-03
      vertex  -2.569263e-03 -2.397016e-03 -1.000039e-03
      vertex  -2.265850e-03 -2.667570e-03  2.643240e-03
    endloop
  endfacet
  facet normal -6.221456e-01 -7.828760e-01 -6.324856e-03
    outer loop
      vertex  -2.569263e-03 -2.397016e-03 -1.000039e-03
      vertex  -1.803805e-03 -3.005320e-03 -1.000000e-03
      vertex  -2.265850e-03 -2.667570e-03  2.643240e-03
    endloop
  endfacet
  facet normal -5.920793e-01 -8.058796e-01 -3.792271e-04
    outer loop
      vertex  -2.265850e-03 -2.667570e-03  2.643240e-03
      vertex  -1.803805e-03 -3.005320e-03 -1.000000e-03
      vertex  -1.884295e-03 -2.947955e-03  2.763410e-03
    endloop
  endfacet
  facet normal -4.926575e-01 -8.702191e-01  2.727885e-03
    outer loop
      vertex  -1.884295e-03 -2.947955e-03  2.763410e-03
      vertex  -1.803805e-03 -3.005320e-03 -1.000000e-03
      vertex  -1.554520e-03 -3.134400e-03  2.843315e-03
    endloop
  endfacet
  facet normal -3.933680e-01 -9.193654e-01 -5.362836e-03
    outer loop
      vertex  -1.803805e-03 -3.005320e-03 -1.000000e-03
      vertex  -8.392425e-04 -3.418026e-03 -9.999922e-04
      vertex  -1.554520e-03 -3.134400e-03  2.843315e-03
    endloop
  endfacet
  facet normal -3.943003e-01 -9.189648e-01 -5.565912e-03
    outer loop
      vertex  -1.554520e-03 -3.134400e-03  2.843315e-03
      vertex  -8.392425e-04 -3.418026e-03 -9.999922e-04
      vertex  -1.206520e-03 -3.284105e-03  2.907475e-03
    endloop
  endfacet
  facet normal -2.879585e-01 -9.576256e-01  5.754590e-03
    outer loop
      vertex  -1.206520e-03 -3.284105e-03  2.907475e-03
      vertex  -8.392425e-04 -3.418026e-03 -9.999922e-04
      vertex  -7.530015e-04 -3.420128e-03  2.965773e-03
    endloop
  endfacet
  facet normal -1.468246e-01 -9.891590e-01  2.668728e-03
    outer loop
      vertex  -7.530015e-04 -3.420128e-03  2.965773e-03
      vertex  -8.392425e-04 -3.418026e-03 -9.999922e-04
      vertex  -2.810674e-04 -3.490098e-03  2.995759e-03
    endloop
  endfacet
  facet normal -8.170839e-02 -9.966347e-01 -6.562329e-03
    outer loop
      vertex  -8.392425e-04 -3.418026e-03 -9.999922e-04
      vertex   1.734720e-18 -3.500000e-03  1.000000e-03
      vertex  -2.810674e-04 -3.490098e-03  2.995759e-03
    endloop
  endfacet
  facet normal -3.520834e-02 -9.993800e-01  0.000000e+00
    outer loop
      vertex  -2.810674e-04 -3.490098e-03  2.995759e-03
      vertex   1.734720e-18 -3.500000e-03  1.000000e-03
      vertex   1.734720e-18 -3.500000e-03  3.000000e-03
    endloop
  endfacet
  facet normal  3.520830e-02 -9.993800e-01  0.000000e+00
    outer loop
      vertex   1.734720e-18 -3.500000e-03  1.000000e-03
      vertex   2.810677e-04 -3.490098e-03  1.004241e-03
      vertex   1.734720e-18 -3.500000e-03  3.000000e-03
    endloop
  endfacet
  facet normal  8.170820e-02 -9.966347e-01  6.562314e-03
    outer loop
      vertex   1.734720e-18 -3.500000e-03  3.000000e-03
      vertex   2.810677e-04 -3.490098e-03  1.004241e-03
      vertex   8.392420e-04 -3.418027e-03  4.999992e-03
    endloop
  endfacet
  facet normal  1.468246e-01 -9.891590e-01 -2.668762e-03
    outer loop
      vertex   2.810677e-04 -3.490098e-03  1.004241e-03
      vertex   7.530017e-04 -3.420128e-03  1.034227e-03
      vertex   8.392420e-04 -3.418027e-03  4.999992e-03
    endloop
  endfacet
  facet normal  2.240304e-08  3.939191e-01 -9.191450e-01
    outer loop
      vertex   2.999000e-03  1.804440e-03  2.273330e-03
      vertex   2.786330e-03  2.118110e-03  2.407760e-03
      vertex   7.620000e-02  3.500000e-03  3.000000e-03
    endloop
  endfacet
  facet normal -6.244780e-08  3.939229e-01 -9.191435e-01
    outer loop
      vertex   2.786330e-03  2.118110e-03  2.407760e-03
      vertex   2.540980e-03  2.406950e-03  2.531550e-03
      vertex   7.620000e-02  3.500000e-03  3.000000e-03
    endloop
  endfacet
  facet normal  2.190636e-07  3.939069e-01 -9.191503e-01
    outer loop
      vertex   2.540980e-03  2.406950e-03  2.531550e-03
      vertex   2.265850e-03  2.667570e-03  2.643240e-03
      vertex   7.620000e-02  3.500000e-03  3.000000e-03
    endloop
  endfacet
  facet normal -3.612186e-08  3.939106e-01 -9.191488e-01
    outer loop
      vertex   7.530017e-04  3.420128e-03  2.965773e-03
      vertex   2.810672e-04  3.490098e-03  2.995759e-03
      vertex   7.620000e-02  3.500000e-03  3.000000e-03
    endloop
  endfacet
  facet normal  0.000000e+00  3.936767e-01 -9.192489e-01
    outer loop
      vertex   7.620000e-02  3.500000e-03  3.000000e-03
      vertex   2.810672e-04  3.490098e-03  2.995759e-03
      vertex  -1.734720e-18  3.500000e-03  3.000000e-03
    endloop
  endfacet
  facet normal -1.244688e-07  3.939207e-01 -9.191445e-01
    outer loop
      vertex   2.892665e-03 -1.961275e-03  6.594540e-04
      vertex   3.246650e-03 -1.293585e-03  9.456080e-04
      vertex   7.620000e-02  3.500000e-03  3.000000e-03
    endloop
  endfacet
  facet normal  0.000000e+00  3.939038e-01 -9.191517e-01
    outer loop
      vertex   4.336810e-19 -3.500000e-03  0.000000e+00
      vertex   6.583500e-04 -3.430990e-03  2.957436e-05
      vertex   7.620000e-02 -3.500000e-03  0.000000e+00
    endloop
  endfacet
  facet normal  1.369998e-08  3.939208e-01 -9.191445e-01
    outer loop
      vertex   2.075073e-03 -2.807762e-03  2.966735e-04
      vertex   2.540980e-03 -2.406950e-03  4.684510e-04
      vertex   7.620000e-02 -3.500000e-03  0.000000e+00
    endloop
  endfacet
  facet normal -1.297031e-08  3.939193e-01 -9.191450e-01
    outer loop
      vertex   7.620000e-02 -3.500000e-03  0.000000e+00
      vertex   2.540980e-03 -2.406950e-03  4.684510e-04
      vertex   7.620000e-02  3.500000e-03  3.000000e-03
    endloop
  endfacet
  facet normal  8.835156e-08  3.939183e-01 -9.191455e-01
    outer loop
      vertex   2.540980e-03 -2.406950e-03  4.684510e-04
      vertex   2.892665e-03 -1.961275e-03  6.594540e-04
      vertex   7.620000e-02  3.500000e-03  3.000000e-03
    endloop
  endfacet
  facet normal  7.266422e-07  3.939019e-01 -9.191525e-01
    outer loop
      vertex   3.418170e-03  7.523970e-04  1.822460e-03
      vertex   3.316790e-03  1.117560e-03  1.978950e-03
      vertex   7.620000e-02  3.500000e-03  3.000000e-03
    endloop
  endfacet
  facet normal -5.226186e-08  3.939220e-01 -9.191439e-01
    outer loop
      vertex   3.316790e-03  1.117560e-03  1.978950e-03
      vertex   3.176510e-03  1.469610e-03  2.129830e-03
      vertex   7.620000e-02  3.500000e-03  3.000000e-03
    endloop
  endfacet
  facet normal -7.580957e-08  3.939227e-01 -9.191436e-01
    outer loop
      vertex   7.620000e-02  3.500000e-03  3.000000e-03
      vertex   3.176510e-03  1.469610e-03  2.129830e-03
      vertex   2.999000e-03  1.804440e-03  2.273330e-03
    endloop
  endfacet
  facet normal -6.436550e-08  3.939332e-01 -9.191390e-01
    outer loop
      vertex   1.206520e-03  3.284105e-03  2.907475e-03
      vertex   7.530017e-04  3.420128e-03  2.965773e-03
      vertex   7.620000e-02  3.500000e-03  3.000000e-03
    endloop
  endfacet
  facet normal  2.184225e-08  3.939240e-01 -9.191431e-01
    outer loop
      vertex   6.583500e-04 -3.430990e-03  2.957436e-05
      vertex   1.380520e-03 -3.209253e-03  1.246060e-04
      vertex   7.620000e-02 -3.500000e-03  0.000000e+00
    endloop
  endfacet
  facet normal  2.807489e-09  3.939198e-01 -9.191448e-01
    outer loop
      vertex   7.620000e-02 -3.500000e-03  0.000000e+00
      vertex   1.380520e-03 -3.209253e-03  1.246060e-04
      vertex   2.075073e-03 -2.807762e-03  2.966735e-04
    endloop
  endfacet
  facet normal  6.216844e-07  3.939110e-01 -9.191486e-01
    outer loop
      vertex   3.246650e-03 -1.293585e-03  9.456080e-04
      vertex   3.418170e-03 -7.523970e-04  1.177540e-03
      vertex   7.620000e-02  3.500000e-03  3.000000e-03
    endloop
  endfacet
  facet normal -3.566069e-07  3.939255e-01 -9.191424e-01
    outer loop
      vertex   7.620000e-02  3.500000e-03  3.000000e-03
      vertex   3.418170e-03 -7.523970e-04  1.177540e-03
      vertex   3.479480e-03 -3.784170e-04  1.337820e-03
    endloop
  endfacet
  facet normal -2.918156e-08  3.939229e-01 -9.191436e-01
    outer loop
      vertex   1.554520e-03  3.134400e-03  2.843315e-03
      vertex   1.206520e-03  3.284105e-03  2.907475e-03
      vertex   7.620000e-02  3.500000e-03  3.000000e-03
    endloop
  endfacet
  facet normal -1.561377e-07  3.939220e-01 -9.191439e-01
    outer loop
      vertex   3.479480e-03 -3.784170e-04  1.337820e-03
      vertex   3.500000e-03 -8.673620e-19  1.500000e-03
      vertex   7.620000e-02  3.500000e-03  3.000000e-03
    endloop
  endfacet
  facet normal -1.439594e-07  3.939218e-01 -9.191440e-01
    outer loop
      vertex   3.500000e-03 -8.673620e-19  1.500000e-03
      vertex   3.479480e-03  3.784170e-04  1.662180e-03
      vertex   7.620000e-02  3.500000e-03  3.000000e-03
    endloop
  endfacet
  facet normal -3.281261e-07  3.939255e-01 -9.191424e-01
    outer loop
      vertex   7.620000e-02  3.500000e-03  3.000000e-03
      vertex   3.479480e-03  3.784170e-04  1.662180e-03
      vertex   3.418170e-03  7.523970e-04  1.822460e-03
    endloop
  endfacet
  facet normal -1.365277e-07  3.939336e-01 -9.191388e-01
    outer loop
      vertex   2.265850e-03  2.667570e-03  2.643240e-03
      vertex   1.884295e-03  2.947955e-03  2.763410e-03
      vertex   7.620000e-02  3.500000e-03  3.000000e-03
    endloop
  endfacet
  facet normal -4.652363e-09  3.939187e-01 -9.191453e-01
    outer loop
      vertex   7.620000e-02  3.500000e-03  3.000000e-03
      vertex   1.884295e-03  2.947955e-03  2.763410e-03
      vertex   1.554520e-03  3.134400e-03  2.843315e-03
    endloop
  endfacet
  facet normal -2.807411e-07 -1.563985e-07 -1.000000e+00
    outer loop
      vertex   7.793378e-04  1.866874e-03 -9.999998e-04
      vertex   1.803805e-03  3.005320e-03 -1.000000e-03
      vertex   1.476036e-03  1.360626e-03 -9.999999e-04
    endloop
  endfacet
  facet normal -4.347224e-05  8.451196e-06 -1.000000e+00
    outer loop
      vertex   1.803805e-03  3.005320e-03 -1.000000e-03
      vertex   2.569263e-03  2.397016e-03 -1.000039e-03
      vertex   1.476036e-03  1.360626e-03 -9.999999e-04
    endloop
  endfacet
  facet normal -2.183333e-05 -1.437442e-05 -1.000000e+00
    outer loop
      vertex   1.476036e-03  1.360626e-03 -9.999999e-04
      vertex   2.569263e-03  2.397016e-03 -1.000039e-03
      vertex   1.833218e-03  8.181009e-04 -9.999999e-04
    endloop
  endfacet
  facet normal  9.478997e-06 -2.897133e-05 -1.000000e+00
    outer loop
      vertex   2.569263e-03  2.397016e-03 -1.000039e-03
      vertex   3.285221e-03  1.277102e-03 -9.999995e-04
      vertex   1.833218e-03  8.181009e-04 -9.999999e-04
    endloop
  endfacet
  facet normal  3.440461e-07 -7.384399e-08 -1.000000e+00
    outer loop
      vertex   1.833218e-03  8.181009e-04 -9.999999e-04
      vertex   3.285221e-03  1.277102e-03 -9.999995e-04
      vertex   2.012764e-03  7.811650e-05 -9.999998e-04
    endloop
  endfacet
  facet normal  1.749871e-07  1.055746e-07 -1.000000e+00
    outer loop
      vertex   3.285221e-03  1.277102e-03 -9.999995e-04
      vertex   3.518272e-03 -2.118567e-04 -9.999996e-04
      vertex   2.012764e-03  7.811650e-05 -9.999998e-04
    endloop
  endfacet
  facet normal  1.749050e-07  1.051482e-07 -1.000000e+00
    outer loop
      vertex   2.012764e-03  7.811650e-05 -9.999998e-04
      vertex   3.518272e-03 -2.118567e-04 -9.999996e-04
      vertex   1.859554e-03 -7.741863e-04 -9.999999e-04
    endloop
  endfacet
  facet normal  2.028648e-07  2.267448e-08 -1.000000e+00
    outer loop
      vertex   3.518272e-03 -2.118567e-04 -9.999996e-04
      vertex   3.106793e-03 -1.664630e-03 -9.999997e-04
      vertex   1.859554e-03 -7.741863e-04 -9.999999e-04
    endloop
  endfacet
  facet normal  1.261240e-07 -8.481591e-08 -1.000000e+00
    outer loop
      vertex   1.859554e-03 -7.741863e-04 -9.999999e-04
      vertex   3.106793e-03 -1.664630e-03 -9.999997e-04
      vertex   1.438628e-03 -1.400117e-03 -9.999999e-04
    endloop
  endfacet
  facet normal -6.086169e-06 -3.926298e-05 -1.000000e+00
    outer loop
      vertex   3.106793e-03 -1.664630e-03 -9.999997e-04
      vertex   1.600915e-03 -3.230967e-03 -9.999290e-04
      vertex   1.438628e-03 -1.400117e-03 -9.999999e-04
    endloop
  endfacet
  facet normal  2.567989e-05 -3.644723e-05 -1.000000e+00
    outer loop
      vertex   1.438628e-03 -1.400117e-03 -9.999999e-04
      vertex   1.600915e-03 -3.230967e-03 -9.999290e-04
      vertex   8.175827e-04 -1.840885e-03 -9.999998e-04
    endloop
  endfacet
  facet normal  8.509354e-06 -4.612308e-05 -1.000000e+00
    outer loop
      vertex   8.175827e-04 -1.840885e-03 -9.999998e-04
      vertex   1.600915e-03 -3.230967e-03 -9.999290e-04
      vertex  -1.424226e-04 -2.017999e-03 -9.999998e-04
    endloop
  endfacet
  facet normal  2.736390e-05 -1.902441e-05 -1.000000e+00
    outer loop
      vertex   1.600915e-03 -3.230967e-03 -9.999290e-04
      vertex  -8.392425e-04 -3.418026e-03 -9.999922e-04
      vertex  -1.424226e-04 -2.017999e-03 -9.999998e-04
    endloop
  endfacet
  facet normal -1.341363e-06 -4.737269e-06 -1.000000e+00
    outer loop
      vertex  -1.424226e-04 -2.017999e-03 -9.999998e-04
      vertex  -8.392425e-04 -3.418026e-03 -9.999922e-04
      vertex  -9.642994e-04 -1.760709e-03 -9.999999e-04
    endloop
  endfacet
  facet normal  6.555809e-06 -4.141369e-06 -1.000000e+00
    outer loop
      vertex  -8.392425e-04 -3.418026e-03 -9.999922e-04
      vertex  -1.803805e-03 -3.005320e-03 -1.000000e-03
      vertex  -9.642994e-04 -1.760709e-03 -9.999999e-04
    endloop
  endfacet
  facet normal  1.436365e-07  1.837219e-07 -1.000000e+00
    outer loop
      vertex  -9.642994e-04 -1.760709e-03 -9.999999e-04
      vertex  -1.803805e-03 -3.005320e-03 -1.000000e-03
      vertex  -1.476036e-03 -1.360626e-03 -9.999999e-04
    endloop
  endfacet
  facet normal  4.347224e-05 -8.451190e-06 -1.000000e+00
    outer loop
      vertex  -1.803805e-03 -3.005320e-03 -1.000000e-03
      vertex  -2.569263e-03 -2.397016e-03 -1.000039e-03
      vertex  -1.476036e-03 -1.360626e-03 -9.999999e-04
    endloop
  endfacet
  facet normal  2.183333e-05  1.437443e-05 -1.000000e+00
    outer loop
      vertex  -1.476036e-03 -1.360626e-03 -9.999999e-04
      vertex  -2.569263e-03 -2.397016e-03 -1.000039e-03
      vertex  -1.833218e-03 -8.181009e-04 -9.999999e-04
    endloop
  endfacet
  facet normal -9.478992e-06  2.897132e-05 -1.000000e+00
    outer loop
      vertex  -2.569263e-03 -2.397016e-03 -1.000039e-03
      vertex  -3.285221e-03 -1.277102e-03 -9.999995e-04
      vertex  -1.833218e-03 -8.181009e-04 -9.999999e-04
    endloop
  endfacet
  facet normal -3.440461e-07  7.384399e-08 -1.000000e+00
    outer loop
      vertex  -1.833218e-03 -8.181009e-04 -9.999999e-04
      vertex  -3.285221e-03 -1.277102e-03 -9.999995e-04
      vertex  -2.012764e-03 -7.811650e-05 -9.999998e-04
    endloop
  endfacet
  facet normal -1.749871e-07 -1.055746e-07 -1.000000e+00
    outer loop
      vertex  -3.285221e-03 -1.277102e-03 -9.999995e-04
      vertex  -3.518272e-03  2.118569e-04 -9.999996e-04
      vertex  -2.012764e-03 -7.811650e-05 -9.999998e-04
    endloop
  endfacet
  facet normal -1.749050e-07 -1.051482e-07 -1.000000e+00
    outer loop
      vertex  -2.012764e-03 -7.811650e-05 -9.999998e-04
      vertex  -3.518272e-03  2.118569e-04 -9.999996e-04
      vertex  -1.859554e-03  7.741863e-04 -9.999999e-04
    endloop
  endfacet
  facet normal -2.028648e-07 -2.267452e-08 -1.000000e+00
    outer loop
      vertex  -3.518272e-03  2.118569e-04 -9.999996e-04
      vertex  -3.106794e-03  1.664629e-03 -9.999997e-04
      vertex  -1.859554e-03  7.741863e-04 -9.999999e-04
    endloop
  endfacet
  facet normal -1.261240e-07  8.481591e-08 -1.000000e+00
    outer loop
      vertex  -1.859554e-03  7.741863e-04 -9.999999e-04
      vertex  -3.106794e-03  1.664629e-03 -9.999997e-04
      vertex  -1.438628e-03  1.400117e-03 -9.999999e-04
    endloop
  endfacet
  facet normal  6.086160e-06  3.926298e-05 -1.000000e+00
    outer loop
      vertex  -3.106794e-03  1.664629e-03 -9.999997e-04
      vertex  -1.600915e-03  3.230967e-03 -9.999290e-04
      vertex  -1.438628e-03  1.400117e-03 -9.999999e-04
    endloop
  endfacet
  facet normal -2.567990e-05  3.644723e-05 -1.000000e+00
    outer loop
      vertex  -1.438628e-03  1.400117e-03 -9.999999e-04
      vertex  -1.600915e-03  3.230967e-03 -9.999290e-04
      vertex  -8.175827e-04  1.840885e-03 -9.999998e-04
    endloop
  endfacet
  facet normal -1.027076e-05  4.513052e-05 -1.000000e+00
    outer loop
      vertex  -8.175827e-04  1.840885e-03 -9.999998e-04
      vertex  -1.600915e-03  3.230967e-03 -9.999290e-04
      vertex  -8.146600e-05  2.005830e-03 -9.999999e-04
    endloop
  endfacet
  facet normal -2.770739e-05  2.350512e-05 -1.000000e+00
    outer loop
      vertex  -1.600915e-03  3.230967e-03 -9.999290e-04
      vertex   8.392427e-04  3.418026e-03 -9.999922e-04
      vertex  -8.146600e-05  2.005830e-03 -9.999999e-04
    endloop
  endfacet
  facet normal  9.170096e-07  4.842891e-06 -1.000000e+00
    outer loop
      vertex  -8.146600e-05  2.005830e-03 -9.999999e-04
      vertex   8.392427e-04  3.418026e-03 -9.999922e-04
      vertex   7.793378e-04  1.866874e-03 -9.999998e-04
    endloop
  endfacet
  facet normal -6.139053e-06  5.115394e-06 -1.000000e+00
    outer loop
      vertex   8.392427e-04  3.418026e-03 -9.999922e-04
      vertex   1.803805e-03  3.005320e-03 -1.000000e-03
      vertex   7.793378e-04  1.866874e-03 -9.999998e-04
    endloop
  endfacet
  facet normal -1.000000e+00  0.000000e+00  0.000000e+00
    outer loop
      vertex  -7.620000e-02 -3.500000e-03  3.000000e-03
      vertex  -7.620000e-02 -3.500000e-03  4.000000e-03
      vertex  -7.620000e-02  3.500000e-03  0.000000e+00
    endloop
  endfacet
  facet normal -1.000000e+00  0.000000e+00  0.000000e+00
    outer loop
      vertex  -7.620000e-02 -3.500000e-03  4.000000e-03
      vertex  -7.620000e-02  3.500000e-03  1.000000e-03
      vertex  -7.620000e-02  3.500000e-03  0.000000e+00
    endloop
  endfacet
  facet normal -0.000000e+00  1.000000e+00  0.000000e+00
    outer loop
      vertex   0.000000e+00  3.500000e-03  4.000000e-03
      vertex   7.620000e-02  3.500000e-03  4.000000e-03
      vertex  -1.734720e-18  3.500000e-03  3.000000e-03
    endloop
  endfacet
  facet normal  0.000000e+00  1.000000e+00  0.000000e+00
    outer loop
      vertex   7.620000e-02  3.500000e-03  4.000000e-03
      vertex   7.620000e-02  3.500000e-03  3.000000e-03
      vertex  -1.734720e-18  3.500000e-03  3.000000e-03
    endloop
  endfacet
  facet normal  0.000000e+00  1.000000e+00  0.000000e+00
    outer loop
      vertex  -7.620000e-02  3.500000e-03  0.000000e+00
      vertex  -7.620000e-02  3.500000e-03  1.000000e-03
      vertex   0.000000e+00  3.500000e-03  0.000000e+00
    endloop
  endfacet
  facet normal -0.000000e+00  1.000000e+00  0.000000e+00
    outer loop
      vertex  -7.620000e-02  3.500000e-03  1.000000e-03
      vertex   0.000000e+00  3.500000e-03  1.000000e-03
      vertex   0.000000e+00  3.500000e-03  0.000000e+00
    endloop
  endfacet
  facet normal  0.000000e+00 -1.000000e+00  0.000000e+00
    outer loop
      vertex   7.620000e-02 -3.500000e-03  0.000000e+00
      vertex   7.620000e-02 -3.500000e-03  1.000000e-03
      vertex   4.336810e-19 -3.500000e-03  0.000000e+00
    endloop
  endfacet
  facet normal -0.000000e+00 -1.000000e+00  0.000000e+00
    outer loop
      vertex   7.620000e-02 -3.500000e-03  1.000000e-03
      vertex   1.734720e-18 -3.500000e-03  1.000000e-03
      vertex   4.336810e-19 -3.500000e-03  0.000000e+00
    endloop
  endfacet
  facet normal -0.000000e+00 -1.000000e+00 -0.000000e+00
    outer loop
      vertex   0.000000e+00 -3.500000e-03  4.000000e-03
      vertex  -7.620000e-02 -3.500000e-03  4.000000e-03
      vertex   1.734720e-18 -3.500000e-03  3.000000e-03
    endloop
  endfacet
  facet normal  0.000000e+00 -1.000000e+00  0.000000e+00
    outer loop
      vertex  -7.620000e-02 -3.500000e-03  4.000000e-03
      vertex  -7.620000e-02 -3.500000e-03  3.000000e-03
      vertex   1.734720e-18 -3.500000e-03  3.000000e-03
    endloop
  endfacet
  facet normal  9.983644e-01 -5.665496e-02 -7.663224e-03
    outer loop
      vertex  -1.982500e-03 -3.563848e-04  5.000000e-03
      vertex  -2.012764e-03 -7.811650e-05 -9.999998e-04
      vertex  -1.927399e-03  6.145982e-04  5.000000e-03
    endloop
  endfacet
  facet normal  9.842041e-01 -1.769207e-01  6.423221e-03
    outer loop
      vertex  -2.012764e-03 -7.811650e-05 -9.999998e-04
      vertex  -1.859554e-03  7.741863e-04 -9.999999e-04
      vertex  -1.927399e-03  6.145982e-04  5.000000e-03
    endloop
  endfacet
  facet normal  8.555843e-01 -5.176474e-01 -4.093814e-03
    outer loop
      vertex  -1.927399e-03  6.145982e-04  5.000000e-03
      vertex  -1.859554e-03  7.741863e-04 -9.999999e-04
      vertex  -1.476036e-03  1.360626e-03  5.000000e-03
    endloop
  endfacet
  facet normal  8.298161e-01 -5.580349e-01  1.500746e-03
    outer loop
      vertex  -1.859554e-03  7.741863e-04 -9.999999e-04
      vertex  -1.438628e-03  1.400117e-03 -9.999999e-04
      vertex  -1.476036e-03  1.360626e-03  5.000000e-03
    endloop
  endfacet
  facet normal  6.159196e-01 -7.878078e-01 -1.345152e-03
    outer loop
      vertex  -1.476036e-03  1.360626e-03  5.000000e-03
      vertex  -1.438628e-03  1.400117e-03 -9.999999e-04
      vertex  -9.642986e-04  1.760710e-03  5.000000e-03
    endloop
  endfacet
  facet normal  5.787672e-01 -8.154862e-01  3.255369e-03
    outer loop
      vertex  -1.438628e-03  1.400117e-03 -9.999999e-04
      vertex  -8.175827e-04  1.840885e-03 -9.999998e-04
      vertex  -9.642986e-04  1.760710e-03  5.000000e-03
    endloop
  endfacet
  facet normal  2.987498e-01 -9.543159e-01 -5.446929e-03
    outer loop
      vertex  -9.642986e-04  1.760710e-03  5.000000e-03
      vertex  -8.175827e-04  1.840885e-03 -9.999998e-04
      vertex  -1.424228e-04  2.017999e-03  4.999999e-03
    endloop
  endfacet
  facet normal  2.186508e-01 -9.757942e-01  4.200358e-03
    outer loop
      vertex  -8.175827e-04  1.840885e-03 -9.999998e-04
      vertex  -8.146600e-05  2.005830e-03 -9.999999e-04
      vertex  -1.424228e-04  2.017999e-03  4.999999e-03
    endloop
  endfacet
  facet normal -1.593631e-01 -9.872200e-01  3.831072e-04
    outer loop
      vertex  -8.146600e-05  2.005830e-03 -9.999999e-04
      vertex   7.793378e-04  1.866874e-03 -9.999998e-04
      vertex  -1.424228e-04  2.017999e-03  4.999999e-03
    endloop
  endfacet
  facet normal -1.814297e-01 -9.833990e-01 -3.103146e-03
    outer loop
      vertex  -1.424228e-04  2.017999e-03  4.999999e-03
      vertex   7.793378e-04  1.866874e-03 -9.999998e-04
      vertex   8.175830e-04  1.840885e-03  5.000000e-03
    endloop
  endfacet
  facet normal -6.071835e-01 -7.945616e-01  4.286500e-04
    outer loop
      vertex   8.175830e-04  1.840885e-03  5.000000e-03
      vertex   7.793378e-04  1.866874e-03 -9.999998e-04
      vertex   1.590342e-03  1.250363e-03  5.000000e-03
    endloop
  endfacet
  facet normal -5.878325e-01 -8.089743e-01 -3.667899e-03
    outer loop
      vertex   7.793378e-04  1.866874e-03 -9.999998e-04
      vertex   1.476036e-03  1.360626e-03 -9.999999e-04
      vertex   1.590342e-03  1.250363e-03  5.000000e-03
    endloop
  endfacet
  facet normal -8.352203e-01 -5.498847e-01  5.806449e-03
    outer loop
      vertex   1.476036e-03  1.360626e-03 -9.999999e-04
      vertex   1.833218e-03  8.181009e-04 -9.999999e-04
      vertex   1.590342e-03  1.250363e-03  5.000000e-03
    endloop
  endfacet
  facet normal -9.157344e-01 -4.017023e-01 -8.128304e-03
    outer loop
      vertex   1.590342e-03  1.250363e-03  5.000000e-03
      vertex   1.833218e-03  8.181009e-04 -9.999999e-04
      vertex   1.982500e-03  3.563848e-04  5.000000e-03
    endloop
  endfacet
  facet normal -9.717857e-01 -2.357884e-01  6.033789e-03
    outer loop
      vertex   1.833218e-03  8.181009e-04 -9.999999e-04
      vertex   2.012764e-03  7.811650e-05 -9.999998e-04
      vertex   1.982500e-03  3.563848e-04  5.000000e-03
    endloop
  endfacet
  facet normal -9.983644e-01  5.665496e-02 -7.663224e-03
    outer loop
      vertex   1.982500e-03  3.563848e-04  5.000000e-03
      vertex   2.012764e-03  7.811650e-05 -9.999998e-04
      vertex   1.927399e-03 -6.145982e-04  5.000000e-03
    endloop
  endfacet
  facet normal -9.842041e-01  1.769207e-01  6.423221e-03
    outer loop
      vertex   2.012764e-03  7.811650e-05 -9.999998e-04
      vertex   1.859554e-03 -7.741863e-04 -9.999999e-04
      vertex   1.927399e-03 -6.145982e-04  5.000000e-03
    endloop
  endfacet
  facet normal -8.555843e-01  5.176474e-01 -4.093814e-03
    outer loop
      vertex   1.927399e-03 -6.145982e-04  5.000000e-03
      vertex   1.859554e-03 -7.741863e-04 -9.999999e-04
      vertex   1.476036e-03 -1.360626e-03  5.000000e-03
    endloop
  endfacet
  facet normal -8.298161e-01  5.580349e-01  1.500746e-03
    outer loop
      vertex   1.859554e-03 -7.741863e-04 -9.999999e-04
      vertex   1.438628e-03 -1.400117e-03 -9.999999e-04
      vertex   1.476036e-03 -1.360626e-03  5.000000e-03
    endloop
  endfacet
  facet normal -5.878357e-01  8.089786e-01 -1.659588e-03
    outer loop
      vertex   1.476036e-03 -1.360626e-03  5.000000e-03
      vertex   1.438628e-03 -1.400117e-03 -9.999999e-04
      vertex   7.793375e-04 -1.866874e-03  5.000000e-03
    endloop
  endfacet
  facet normal -5.787703e-01  8.154905e-01 -1.568761e-04
    outer loop
      vertex   1.438628e-03 -1.400117e-03 -9.999999e-04
      vertex   8.175827e-04 -1.840885e-03 -9.999998e-04
      vertex   7.793375e-04 -1.866874e-03  5.000000e-03
    endloop
  endfacet
  facet normal -1.814296e-01  9.833991e-01  3.103149e-03
    outer loop
      vertex   8.175827e-04 -1.840885e-03 -9.999998e-04
      vertex  -1.424226e-04 -2.017999e-03 -9.999998e-04
      vertex   7.793375e-04 -1.866874e-03  5.000000e-03
    endloop
  endfacet
  facet normal -1.593629e-01  9.872200e-01 -3.831162e-04
    outer loop
      vertex   7.793375e-04 -1.866874e-03  5.000000e-03
      vertex  -1.424226e-04 -2.017999e-03 -9.999998e-04
      vertex  -8.146600e-05 -2.005830e-03  4.999999e-03
    endloop
  endfacet
  facet normal  2.186510e-01  9.757941e-01 -4.200352e-03
    outer loop
      vertex  -8.146600e-05 -2.005830e-03  4.999999e-03
      vertex  -1.424226e-04 -2.017999e-03 -9.999998e-04
      vertex  -8.175830e-04 -1.840885e-03  5.000000e-03
    endloop
  endfacet
  facet normal  2.987499e-01  9.543158e-01  5.446925e-03
    outer loop
      vertex  -1.424226e-04 -2.017999e-03 -9.999998e-04
      vertex  -9.642994e-04 -1.760709e-03 -9.999999e-04
      vertex  -8.175830e-04 -1.840885e-03  5.000000e-03
    endloop
  endfacet
  facet normal  6.071781e-01  7.945545e-01 -4.229817e-03
    outer loop
      vertex  -8.175830e-04 -1.840885e-03  5.000000e-03
      vertex  -9.642994e-04 -1.760709e-03 -9.999999e-04
      vertex  -1.590342e-03 -1.250363e-03  5.000000e-03
    endloop
  endfacet
  facet normal  6.159181e-01  7.878054e-01 -2.743809e-03
    outer loop
      vertex  -9.642994e-04 -1.760709e-03 -9.999999e-04
      vertex  -1.476036e-03 -1.360626e-03 -9.999999e-04
      vertex  -1.590342e-03 -1.250363e-03  5.000000e-03
    endloop
  endfacet
  facet normal  8.352203e-01  5.498847e-01  5.806449e-03
    outer loop
      vertex  -1.476036e-03 -1.360626e-03 -9.999999e-04
      vertex  -1.833218e-03 -8.181009e-04 -9.999999e-04
      vertex  -1.590342e-03 -1.250363e-03  5.000000e-03
    endloop
  endfacet
  facet normal  9.157344e-01  4.017023e-01 -8.128304e-03
    outer loop
      vertex  -1.590342e-03 -1.250363e-03  5.000000e-03
      vertex  -1.833218e-03 -8.181009e-04 -9.999999e-04
      vertex  -1.982500e-03 -3.563848e-04  5.000000e-03
    endloop
  endfacet
  facet normal  9.717857e-01  2.357884e-01  6.033789e-03
    outer loop
      vertex  -1.833218e-03 -8.181009e-04 -9.999999e-04
      vertex  -2.012764e-03 -7.811650e-05 -9.999998e-04
      vertex  -1.982500e-03 -3.563848e-04  5.000000e-03
    endloop
  endfacet
  facet normal -2.240304e-08 -3.939191e-01 -9.191450e-01
    outer loop
      vertex  -2.999000e-03 -1.804440e-03  2.273330e-03
      vertex  -2.786330e-03 -2.118110e-03  2.407760e-03
      vertex  -7.620000e-02 -3.500000e-03  3.000000e-03
    endloop
  endfacet
  facet normal  6.244780e-08 -3.939229e-01 -9.191435e-01
    outer loop
      vertex  -2.786330e-03 -2.118110e-03  2.407760e-03
      vertex  -2.540980e-03 -2.406950e-03  2.531550e-03
      vertex  -7.620000e-02 -3.500000e-03  3.000000e-03
    endloop
  endfacet
  facet normal -2.183936e-07 -3.939068e-01 -9.191504e-01
    outer loop
      vertex  -7.620000e-02 -3.500000e-03  3.000000e-03
      vertex  -2.540980e-03 -2.406950e-03  2.531550e-03
      vertex  -2.265850e-03 -2.667570e-03  2.643240e-03
    endloop
  endfacet
  facet normal  1.244688e-07 -3.939207e-01 -9.191445e-01
    outer loop
      vertex  -2.892665e-03  1.961275e-03  6.594540e-04
      vertex  -3.246650e-03  1.293585e-03  9.456080e-04
      vertex  -7.620000e-02 -3.500000e-03  3.000000e-03
    endloop
  endfacet
  facet normal  3.750388e-08 -3.939117e-01 -9.191483e-01
    outer loop
      vertex  -7.530015e-04 -3.420128e-03  2.965773e-03
      vertex  -2.810674e-04 -3.490098e-03  2.995759e-03
      vertex  -7.620000e-02 -3.500000e-03  3.000000e-03
    endloop
  endfacet
  facet normal  0.000000e+00 -3.936688e-01 -9.192523e-01
    outer loop
      vertex  -7.620000e-02 -3.500000e-03  3.000000e-03
      vertex  -2.810674e-04 -3.490098e-03  2.995759e-03
      vertex   1.734720e-18 -3.500000e-03  3.000000e-03
    endloop
  endfacet
  facet normal -1.369998e-08 -3.939208e-01 -9.191445e-01
    outer loop
      vertex  -2.075073e-03  2.807762e-03  2.966735e-04
      vertex  -2.540980e-03  2.406950e-03  4.684510e-04
      vertex  -7.620000e-02  3.500000e-03  0.000000e+00
    endloop
  endfacet
  facet normal  1.297031e-08 -3.939193e-01 -9.191450e-01
    outer loop
      vertex  -7.620000e-02  3.500000e-03  0.000000e+00
      vertex  -2.540980e-03  2.406950e-03  4.684510e-04
      vertex  -7.620000e-02 -3.500000e-03  3.000000e-03
    endloop
  endfacet
  facet normal -8.835156e-08 -3.939183e-01 -9.191455e-01
    outer loop
      vertex  -2.540980e-03  2.406950e-03  4.684510e-04
      vertex  -2.892665e-03  1.961275e-03  6.594540e-04
      vertex  -7.620000e-02 -3.500000e-03  3.000000e-03
    endloop
  endfacet
  facet normal -0.000000e+00 -3.939038e-01 -9.191517e-01
    outer loop
      vertex   0.000000e+00  3.500000e-03  0.000000e+00
      vertex  -6.583500e-04  3.430990e-03  2.957436e-05
      vertex  -7.620000e-02  3.500000e-03  0.000000e+00
    endloop
  endfacet
  facet normal -7.266422e-07 -3.939019e-01 -9.191525e-01
    outer loop
      vertex  -3.418170e-03 -7.523970e-04  1.822460e-03
      vertex  -3.316790e-03 -1.117560e-03  1.978950e-03
      vertex  -7.620000e-02 -3.500000e-03  3.000000e-03
    endloop
  endfacet
  facet normal  5.226186e-08 -3.939220e-01 -9.191439e-01
    outer loop
      vertex  -3.316790e-03 -1.117560e-03  1.978950e-03
      vertex  -3.176510e-03 -1.469610e-03  2.129830e-03
      vertex  -7.620000e-02 -3.500000e-03  3.000000e-03
    endloop
  endfacet
  facet normal  7.580957e-08 -3.939227e-01 -9.191436e-01
    outer loop
      vertex  -7.620000e-02 -3.500000e-03  3.000000e-03
      vertex  -3.176510e-03 -1.469610e-03  2.129830e-03
      vertex  -2.999000e-03 -1.804440e-03  2.273330e-03
    endloop
  endfacet
  facet normal  6.436550e-08 -3.939332e-01 -9.191390e-01
    outer loop
      vertex  -1.206520e-03 -3.284105e-03  2.907475e-03
      vertex  -7.530015e-04 -3.420128e-03  2.965773e-03
      vertex  -7.620000e-02 -3.500000e-03  3.000000e-03
    endloop
  endfacet
  facet normal -2.184225e-08 -3.939240e-01 -9.191431e-01
    outer loop
      vertex  -6.583500e-04  3.430990e-03  2.957436e-05
      vertex  -1.380520e-03  3.209253e-03  1.246060e-04
      vertex  -7.620000e-02  3.500000e-03  0.000000e+00
    endloop
  endfacet
  facet normal -2.807489e-09 -3.939198e-01 -9.191448e-01
    outer loop
      vertex  -7.620000e-02  3.500000e-03  0.000000e+00
      vertex  -1.380520e-03  3.209253e-03  1.246060e-04
      vertex  -2.075073e-03  2.807762e-03  2.966735e-04
    endloop
  endfacet
  facet normal -6.216844e-07 -3.939110e-01 -9.191486e-01
    outer loop
      vertex  -3.246650e-03  1.293585e-03  9.456080e-04
      vertex  -3.418170e-03  7.523970e-04  1.177540e-03
      vertex  -7.620000e-02 -3.500000e-03  3.000000e-03
    endloop
  endfacet
  facet normal  3.566069e-07 -3.939255e-01 -9.191424e-01
    outer loop
      vertex  -7.620000e-02 -3.500000e-03  3.000000e-03
      vertex  -3.418170e-03  7.523970e-04  1.177540e-03
      vertex  -3.479480e-03  3.784170e-04  1.337820e-03
    endloop
  endfacet
  facet normal  2.918156e-08 -3.939229e-01 -9.191436e-01
    outer loop
      vertex  -1.554520e-03 -3.134400e-03  2.843315e-03
      vertex  -1.206520e-03 -3.284105e-03  2.907475e-03
      vertex  -7.620000e-02 -3.500000e-03  3.000000e-03
    endloop
  endfacet
  facet normal  1.561377e-07 -3.939220e-01 -9.191439e-01
    outer loop
      vertex  -3.479480e-03  3.784170e-04  1.337820e-03
      vertex  -3.500000e-03  0.000000e+00  1.500000e-03
      vertex  -7.620000e-02 -3.500000e-03  3.000000e-03
    endloop
  endfacet
  facet normal  1.439594e-07 -3.939218e-01 -9.191440e-01
    outer loop
      vertex  -3.500000e-03  0.000000e+00  1.500000e-03
      vertex  -3.479480e-03 -3.784170e-04  1.662180e-03
      vertex  -7.620000e-02 -3.500000e-03  3.000000e-03
    endloop
  endfacet
  facet normal  3.281261e-07 -3.939255e-01 -9.191424e-01
    outer loop
      vertex  -7.620000e-02 -3.500000e-03  3.000000e-03
      vertex  -3.479480e-03 -3.784170e-04  1.662180e-03
      vertex  -3.418170e-03 -7.523970e-04  1.822460e-03
    endloop
  endfacet
  facet normal  1.365277e-07 -3.939336e-01 -9.191388e-01
    outer loop
      vertex  -2.265850e-03 -2.667570e-03  2.643240e-03
      vertex  -1.884295e-03 -2.947955e-03  2.763410e-03
      vertex  -7.620000e-02 -3.500000e-03  3.000000e-03
    endloop
  endfacet
  facet normal  4.652363e-09 -3.939187e-01 -9.191453e-01
    outer loop
      vertex  -7.620000e-02 -3.500000e-03  3.000000e-03
      vertex  -1.884295e-03 -2.947955e-03  2.763410e-03
      vertex  -1.554520e-03 -3.134400e-03  2.843315e-03
    endloop
  endfacet
  facet normal  1.000000e+00  0.000000e+00 -0.000000e+00
    outer loop
      vertex   7.620000e-02  3.500000e-03  3.000000e-03
      vertex   7.620000e-02  3.500000e-03  4.000000e-03
      vertex   7.620000e-02 -3.500000e-03  0.000000e+00
    endloop
  endfacet
  facet normal  1.000000e+00  0.000000e+00  0.000000e+00
    outer loop
      vertex   7.620000e-02  3.500000e-03  4.000000e-03
      vertex   7.620000e-02 -3.500000e-03  1.000000e-03
      vertex   7.620000e-02 -3.500000e-03  0.000000e+00
    endloop
  endfacet
  facet normal  2.246739e-05 -1.359327e-05  1.000000e+00
    outer loop
      vertex  -1.476036e-03  1.360626e-03  5.000000e-03
      vertex  -2.569263e-03  2.397016e-03  5.000039e-03
      vertex  -1.927399e-03  6.145982e-04  5.000000e-03
    endloop
  endfacet
  facet normal -1.325117e-05 -2.645582e-05  1.000000e+00
    outer loop
      vertex  -2.569263e-03  2.397016e-03  5.000039e-03
      vertex  -3.285221e-03  1.277102e-03  4.999999e-03
      vertex  -1.927399e-03  6.145982e-04  5.000000e-03
    endloop
  endfacet
  facet normal -3.186152e-07  4.986947e-08  1.000000e+00
    outer loop
      vertex  -3.285221e-03  1.277102e-03  4.999999e-03
      vertex  -3.518272e-03 -2.118566e-04  4.999999e-03
      vertex  -1.927399e-03  6.145982e-04  5.000000e-03
    endloop
  endfacet
  facet normal -3.015994e-07  1.711509e-08  1.000000e+00
    outer loop
      vertex  -1.927399e-03  6.145982e-04  5.000000e-03
      vertex  -3.518272e-03 -2.118566e-04  4.999999e-03
      vertex  -1.982500e-03 -3.563848e-04  5.000000e-03
    endloop
  endfacet
  facet normal -3.115134e-07 -8.823192e-08  1.000000e+00
    outer loop
      vertex  -3.518272e-03 -2.118566e-04  4.999999e-03
      vertex  -3.106794e-03 -1.664629e-03  4.999999e-03
      vertex  -1.982500e-03 -3.563848e-04  5.000000e-03
    endloop
  endfacet
  facet normal -2.742125e-07 -1.202879e-07  1.000000e+00
    outer loop
      vertex  -1.982500e-03 -3.563848e-04  5.000000e-03
      vertex  -3.106794e-03 -1.664629e-03  4.999999e-03
      vertex  -1.590342e-03 -1.250363e-03  5.000000e-03
    endloop
  endfacet
  facet normal  9.389362e-07 -4.561103e-06  1.000000e+00
    outer loop
      vertex  -3.106794e-03 -1.664629e-03  4.999999e-03
      vertex  -2.146433e-03 -2.794154e-03  4.999993e-03
      vertex  -1.590342e-03 -1.250363e-03  5.000000e-03
    endloop
  endfacet
  facet normal -2.530474e-06 -3.311384e-06  1.000000e+00
    outer loop
      vertex  -1.590342e-03 -1.250363e-03  5.000000e-03
      vertex  -2.146433e-03 -2.794154e-03  4.999993e-03
      vertex  -8.175830e-04 -1.840885e-03  5.000000e-03
    endloop
  endfacet
  facet normal  7.355407e-07 -7.864182e-06  1.000000e+00
    outer loop
      vertex  -2.146433e-03 -2.794154e-03  4.999993e-03
      vertex  -7.851510e-04 -3.436601e-03  4.999987e-03
      vertex  -8.175830e-04 -1.840885e-03  5.000000e-03
    endloop
  endfacet
  facet normal -1.138108e-06 -7.902263e-06  1.000000e+00
    outer loop
      vertex  -8.175830e-04 -1.840885e-03  5.000000e-03
      vertex  -7.851510e-04 -3.436601e-03  4.999987e-03
      vertex  -8.146600e-05 -2.005830e-03  4.999999e-03
    endloop
  endfacet
  facet normal -2.785585e-06 -7.091997e-06  1.000000e+00
    outer loop
      vertex  -7.851510e-04 -3.436601e-03  4.999987e-03
      vertex   8.392420e-04 -3.418027e-03  4.999992e-03
      vertex  -8.146600e-05 -2.005830e-03  4.999999e-03
    endloop
  endfacet
  facet normal  2.811169e-07 -5.092602e-06  1.000000e+00
    outer loop
      vertex  -8.146600e-05 -2.005830e-03  4.999999e-03
      vertex   8.392420e-04 -3.418027e-03  4.999992e-03
      vertex   7.793375e-04 -1.866874e-03  5.000000e-03
    endloop
  endfacet
  facet normal -6.400466e-06 -5.350641e-06  1.000000e+00
    outer loop
      vertex   8.392420e-04 -3.418027e-03  4.999992e-03
      vertex   1.803806e-03 -3.005320e-03  5.000000e-03
      vertex   7.793375e-04 -1.866874e-03  5.000000e-03
    endloop
  endfacet
  facet normal -1.797091e-07  2.473154e-07  1.000000e+00
    outer loop
      vertex   7.793375e-04 -1.866874e-03  5.000000e-03
      vertex   1.803806e-03 -3.005320e-03  5.000000e-03
      vertex   1.476036e-03 -1.360626e-03  5.000000e-03
    endloop
  endfacet
  facet normal -4.325824e-05 -8.337772e-06  1.000000e+00
    outer loop
      vertex   1.803806e-03 -3.005320e-03  5.000000e-03
      vertex   2.569263e-03 -2.397016e-03  5.000039e-03
      vertex   1.476036e-03 -1.360626e-03  5.000000e-03
    endloop
  endfacet
  facet normal -2.246739e-05  1.359327e-05  1.000000e+00
    outer loop
      vertex   1.476036e-03 -1.360626e-03  5.000000e-03
      vertex   2.569263e-03 -2.397016e-03  5.000039e-03
      vertex   1.927399e-03 -6.145982e-04  5.000000e-03
    endloop
  endfacet
  facet normal  1.325116e-05  2.645581e-05  1.000000e+00
    outer loop
      vertex   2.569263e-03 -2.397016e-03  5.000039e-03
      vertex   3.285221e-03 -1.277101e-03  4.999999e-03
      vertex   1.927399e-03 -6.145982e-04  5.000000e-03
    endloop
  endfacet
  facet normal  3.186152e-07 -4.986939e-08  1.000000e+00
    outer loop
      vertex   3.285221e-03 -1.277101e-03  4.999999e-03
      vertex   3.518272e-03  2.118566e-04  4.999999e-03
      vertex   1.927399e-03 -6.145982e-04  5.000000e-03
    endloop
  endfacet
  facet normal  3.015994e-07 -1.711509e-08  1.000000e+00
    outer loop
      vertex   1.927399e-03 -6.145982e-04  5.000000e-03
      vertex   3.518272e-03  2.118566e-04  4.999999e-03
      vertex   1.982500e-03  3.563848e-04  5.000000e-03
    endloop
  endfacet
  facet normal  3.115134e-07  8.823192e-08  1.000000e+00
    outer loop
      vertex   3.518272e-03  2.118566e-04  4.999999e-03
      vertex   3.106794e-03  1.664629e-03  4.999999e-03
      vertex   1.982500e-03  3.563848e-04  5.000000e-03
    endloop
  endfacet
  facet normal  2.742125e-07  1.202879e-07  1.000000e+00
    outer loop
      vertex   1.982500e-03  3.563848e-04  5.000000e-03
      vertex   3.106794e-03  1.664629e-03  4.999999e-03
      vertex   1.590342e-03  1.250363e-03  5.000000e-03
    endloop
  endfacet
  facet normal -9.389361e-07  4.561103e-06  1.000000e+00
    outer loop
      vertex   3.106794e-03  1.664629e-03  4.999999e-03
      vertex   2.146433e-03  2.794154e-03  4.999993e-03
      vertex   1.590342e-03  1.250363e-03  5.000000e-03
    endloop
  endfacet
  facet normal  2.530473e-06  3.311383e-06  1.000000e+00
    outer loop
      vertex   1.590342e-03  1.250363e-03  5.000000e-03
      vertex   2.146433e-03  2.794154e-03  4.999993e-03
      vertex   8.175830e-04  1.840885e-03  5.000000e-03
    endloop
  endfacet
  facet normal -7.355430e-07  7.864184e-06  1.000000e+00
    outer loop
      vertex   2.146433e-03  2.794154e-03  4.999993e-03
      vertex   7.851517e-04  3.436601e-03  4.999987e-03
      vertex   8.175830e-04  1.840885e-03  5.000000e-03
    endloop
  endfacet
  facet normal  9.722249e-07  7.898892e-06  1.000000e+00
    outer loop
      vertex   8.175830e-04  1.840885e-03  5.000000e-03
      vertex   7.851517e-04  3.436601e-03  4.999987e-03
      vertex  -1.424228e-04  2.017999e-03  4.999999e-03
    endloop
  endfacet
  facet normal  2.789950e-06  6.710345e-06  1.000000e+00
    outer loop
      vertex   7.851517e-04  3.436601e-03  4.999987e-03
      vertex  -8.392418e-04  3.418027e-03  4.999992e-03
      vertex  -1.424228e-04  2.017999e-03  4.999999e-03
    endloop
  endfacet
  facet normal -9.511875e-07  4.848314e-06  1.000000e+00
    outer loop
      vertex  -1.424228e-04  2.017999e-03  4.999999e-03
      vertex  -8.392418e-04  3.418027e-03  4.999992e-03
      vertex  -9.642986e-04  1.760710e-03  5.000000e-03
    endloop
  endfacet
  facet normal  6.867842e-06  4.258311e-06  1.000000e+00
    outer loop
      vertex  -8.392418e-04  3.418027e-03  4.999992e-03
      vertex  -1.803805e-03  3.005320e-03  5.000000e-03
      vertex  -9.642986e-04  1.760710e-03  5.000000e-03
    endloop
  endfacet
  facet normal  1.915153e-07 -2.449626e-07  1.000000e+00
    outer loop
      vertex  -9.642986e-04  1.760710e-03  5.000000e-03
      vertex  -1.803805e-03  3.005320e-03  5.000000e-03
      vertex  -1.476036e-03  1.360626e-03  5.000000e-03
    endloop
  endfacet
  facet normal  4.325823e-05  8.337758e-06  1.000000e+00
    outer loop
      vertex  -1.803805e-03  3.005320e-03  5.000000e-03
      vertex  -2.569263e-03  2.397016e-03  5.000039e-03
      vertex  -1.476036e-03  1.360626e-03  5.000000e-03
    endloop
  endfacet
  facet normal  1.288175e-08 -3.939195e-01  9.191450e-01
    outer loop
      vertex   2.999000e-03 -1.804440e-03  1.726670e-03
      vertex   2.786330e-03 -2.118110e-03  1.592240e-03
      vertex   7.620000e-02 -3.500000e-03  1.000000e-03
    endloop
  endfacet
  facet normal -6.487296e-08 -3.939229e-01  9.191435e-01
    outer loop
      vertex   2.786330e-03 -2.118110e-03  1.592240e-03
      vertex   2.540980e-03 -2.406950e-03  1.468450e-03
      vertex   7.620000e-02 -3.500000e-03  1.000000e-03
    endloop
  endfacet
  facet normal  2.224132e-07 -3.939064e-01  9.191505e-01
    outer loop
      vertex   7.620000e-02 -3.500000e-03  1.000000e-03
      vertex   2.540980e-03 -2.406950e-03  1.468450e-03
      vertex   2.265850e-03 -2.667570e-03  1.356760e-03
    endloop
  endfacet
  facet normal -3.708168e-08 -3.939091e-01  9.191494e-01
    outer loop
      vertex   7.530017e-04 -3.420128e-03  1.034227e-03
      vertex   2.810677e-04 -3.490098e-03  1.004241e-03
      vertex   7.620000e-02 -3.500000e-03  1.000000e-03
    endloop
  endfacet
  facet normal  0.000000e+00 -3.936688e-01  9.192523e-01
    outer loop
      vertex   7.620000e-02 -3.500000e-03  1.000000e-03
      vertex   2.810677e-04 -3.490098e-03  1.004241e-03
      vertex   1.734720e-18 -3.500000e-03  1.000000e-03
    endloop
  endfacet
  facet normal -2.622734e-07 -3.939221e-01  9.191438e-01
    outer loop
      vertex   2.892665e-03  1.961275e-03  3.340545e-03
      vertex   3.246650e-03  1.293585e-03  3.054390e-03
      vertex   7.620000e-02 -3.500000e-03  1.000000e-03
    endloop
  endfacet
  facet normal -5.936673e-08 -3.939160e-01  9.191465e-01
    outer loop
      vertex   2.075073e-03  2.807762e-03  3.703325e-03
      vertex   2.540980e-03  2.406950e-03  3.531550e-03
      vertex   7.620000e-02  3.500000e-03  4.000000e-03
    endloop
  endfacet
  facet normal -2.026610e-09 -3.939193e-01  9.191450e-01
    outer loop
      vertex   7.620000e-02  3.500000e-03  4.000000e-03
      vertex   2.540980e-03  2.406950e-03  3.531550e-03
      vertex   7.620000e-02 -3.500000e-03  1.000000e-03
    endloop
  endfacet
  facet normal -2.378692e-07 -3.939218e-01  9.191440e-01
    outer loop
      vertex   2.540980e-03  2.406950e-03  3.531550e-03
      vertex   2.892665e-03  1.961275e-03  3.340545e-03
      vertex   7.620000e-02 -3.500000e-03  1.000000e-03
    endloop
  endfacet
  facet normal -6.809108e-08 -3.939338e-01  9.191388e-01
    outer loop
      vertex   1.206520e-03 -3.284105e-03  1.092525e-03
      vertex   7.530017e-04 -3.420128e-03  1.034227e-03
      vertex   7.620000e-02 -3.500000e-03  1.000000e-03
    endloop
  endfacet
  facet normal  0.000000e+00 -3.938856e-01  9.191595e-01
    outer loop
      vertex   0.000000e+00  3.500000e-03  4.000000e-03
      vertex   6.583500e-04  3.430990e-03  3.970427e-03
      vertex   7.620000e-02  3.500000e-03  4.000000e-03
    endloop
  endfacet
  facet normal  7.470700e-07 -3.939013e-01  9.191527e-01
    outer loop
      vertex   3.418170e-03 -7.523970e-04  2.177540e-03
      vertex   3.316790e-03 -1.117560e-03  2.021050e-03
      vertex   7.620000e-02 -3.500000e-03  1.000000e-03
    endloop
  endfacet
  facet normal -7.135753e-08 -3.939226e-01  9.191437e-01
    outer loop
      vertex   3.316790e-03 -1.117560e-03  2.021050e-03
      vertex   3.176510e-03 -1.469610e-03  1.870170e-03
      vertex   7.620000e-02 -3.500000e-03  1.000000e-03
    endloop
  endfacet
  facet normal -7.580957e-08 -3.939227e-01  9.191436e-01
    outer loop
      vertex   7.620000e-02 -3.500000e-03  1.000000e-03
      vertex   3.176510e-03 -1.469610e-03  1.870170e-03
      vertex   2.999000e-03 -1.804440e-03  1.726670e-03
    endloop
  endfacet
  facet normal  4.499642e-08 -3.939272e-01  9.191416e-01
    outer loop
      vertex   6.583500e-04  3.430990e-03  3.970427e-03
      vertex   1.380520e-03  3.209253e-03  3.875395e-03
      vertex   7.620000e-02  3.500000e-03  4.000000e-03
    endloop
  endfacet
  facet normal -3.062619e-08 -3.939229e-01  9.191436e-01
    outer loop
      vertex   1.554520e-03 -3.134400e-03  1.156685e-03
      vertex   1.206520e-03 -3.284105e-03  1.092525e-03
      vertex   7.620000e-02 -3.500000e-03  1.000000e-03
    endloop
  endfacet
  facet normal  3.109828e-08 -3.939242e-01  9.191429e-01
    outer loop
      vertex   7.620000e-02  3.500000e-03  4.000000e-03
      vertex   1.380520e-03  3.209253e-03  3.875395e-03
      vertex   2.075073e-03  2.807762e-03  3.703325e-03
    endloop
  endfacet
  facet normal  8.244087e-07 -3.939081e-01  9.191499e-01
    outer loop
      vertex   3.246650e-03  1.293585e-03  3.054390e-03
      vertex   3.418170e-03  7.523970e-04  2.822460e-03
      vertex   7.620000e-02 -3.500000e-03  1.000000e-03
    endloop
  endfacet
  facet normal -3.566070e-07 -3.939253e-01  9.191425e-01
    outer loop
      vertex   7.620000e-02 -3.500000e-03  1.000000e-03
      vertex   3.418170e-03  7.523970e-04  2.822460e-03
      vertex   3.479480e-03  3.784170e-04  2.662180e-03
    endloop
  endfacet
  facet normal -1.337351e-07 -3.939333e-01  9.191391e-01
    outer loop
      vertex   2.265850e-03 -2.667570e-03  1.356760e-03
      vertex   1.884295e-03 -2.947955e-03  1.236590e-03
      vertex   7.620000e-02 -3.500000e-03  1.000000e-03
    endloop
  endfacet
  facet normal -8.839487e-09 -3.939191e-01  9.191451e-01
    outer loop
      vertex   7.620000e-02 -3.500000e-03  1.000000e-03
      vertex   1.884295e-03 -2.947955e-03  1.236590e-03
      vertex   1.554520e-03 -3.134400e-03  1.156685e-03
    endloop
  endfacet
  facet normal -1.580418e-07 -3.939220e-01  9.191439e-01
    outer loop
      vertex   3.479480e-03  3.784170e-04  2.662180e-03
      vertex   3.500000e-03  1.301040e-18  2.500000e-03
      vertex   7.620000e-02 -3.500000e-03  1.000000e-03
    endloop
  endfacet
  facet normal -1.572188e-07 -3.939220e-01  9.191439e-01
    outer loop
      vertex   3.500000e-03  1.301040e-18  2.500000e-03
      vertex   3.479480e-03 -3.784170e-04  2.337820e-03
      vertex   7.620000e-02 -3.500000e-03  1.000000e-03
    endloop
  endfacet
  facet normal -3.128645e-07 -3.939250e-01  9.191425e-01
    outer loop
      vertex   7.620000e-02 -3.500000e-03  1.000000e-03
      vertex   3.479480e-03 -3.784170e-04  2.337820e-03
      vertex   3.418170e-03 -7.523970e-04  2.177540e-03
    endloop
  endfacet
  facet normal  3.242576e-09  3.939193e-01  9.191450e-01
    outer loop
      vertex  -7.620000e-02  3.500000e-03  1.000000e-03
      vertex  -7.620000e-02 -3.500000e-03  4.000000e-03
      vertex  -2.540980e-03 -2.406950e-03  3.531550e-03
    endloop
  endfacet
  facet normal  3.708168e-08  3.939091e-01  9.191494e-01
    outer loop
      vertex  -7.530015e-04  3.420128e-03  1.034227e-03
      vertex  -2.810676e-04  3.490098e-03  1.004241e-03
      vertex  -7.620000e-02  3.500000e-03  1.000000e-03
    endloop
  endfacet
  facet normal -0.000000e+00  3.936688e-01  9.192523e-01
    outer loop
      vertex  -7.620000e-02  3.500000e-03  1.000000e-03
      vertex  -2.810676e-04  3.490098e-03  1.004241e-03
      vertex   0.000000e+00  3.500000e-03  1.000000e-03
    endloop
  endfacet
  facet normal -1.288175e-08  3.939195e-01  9.191450e-01
    outer loop
      vertex  -2.999000e-03  1.804440e-03  1.726670e-03
      vertex  -2.786330e-03  2.118110e-03  1.592240e-03
      vertex  -7.620000e-02  3.500000e-03  1.000000e-03
    endloop
  endfacet
  facet normal  6.487296e-08  3.939229e-01  9.191435e-01
    outer loop
      vertex  -2.786330e-03  2.118110e-03  1.592240e-03
      vertex  -2.540980e-03  2.406950e-03  1.468450e-03
      vertex  -7.620000e-02  3.500000e-03  1.000000e-03
    endloop
  endfacet
  facet normal -2.224132e-07  3.939064e-01  9.191505e-01
    outer loop
      vertex  -7.620000e-02  3.500000e-03  1.000000e-03
      vertex  -2.540980e-03  2.406950e-03  1.468450e-03
      vertex  -2.265850e-03  2.667570e-03  1.356760e-03
    endloop
  endfacet
  facet normal  2.378692e-07  3.939218e-01  9.191440e-01
    outer loop
      vertex  -2.540980e-03 -2.406950e-03  3.531550e-03
      vertex  -2.892665e-03 -1.961275e-03  3.340545e-03
      vertex  -7.620000e-02  3.500000e-03  1.000000e-03
    endloop
  endfacet
  facet normal  2.489377e-07  3.939221e-01  9.191439e-01
    outer loop
      vertex  -7.620000e-02  3.500000e-03  1.000000e-03
      vertex  -2.892665e-03 -1.961275e-03  3.340545e-03
      vertex  -3.246650e-03 -1.293585e-03  3.054390e-03
    endloop
  endfacet
  facet normal  6.001910e-08  3.939160e-01  9.191464e-01
    outer loop
      vertex  -7.620000e-02 -3.500000e-03  4.000000e-03
      vertex  -2.075073e-03 -2.807762e-03  3.703325e-03
      vertex  -2.540980e-03 -2.406950e-03  3.531550e-03
    endloop
  endfacet
  facet normal  6.809108e-08  3.939338e-01  9.191388e-01
    outer loop
      vertex  -1.206520e-03  3.284105e-03  1.092525e-03
      vertex  -7.530015e-04  3.420128e-03  1.034227e-03
      vertex  -7.620000e-02  3.500000e-03  1.000000e-03
    endloop
  endfacet
  facet normal  0.000000e+00  3.938856e-01  9.191595e-01
    outer loop
      vertex   0.000000e+00 -3.500000e-03  4.000000e-03
      vertex  -6.583500e-04 -3.430990e-03  3.970427e-03
      vertex  -7.620000e-02 -3.500000e-03  4.000000e-03
    endloop
  endfacet
  facet normal -7.470700e-07  3.939013e-01  9.191527e-01
    outer loop
      vertex  -3.418170e-03  7.523970e-04  2.177540e-03
      vertex  -3.316790e-03  1.117560e-03  2.021050e-03
      vertex  -7.620000e-02  3.500000e-03  1.000000e-03
    endloop
  endfacet
  facet normal  7.135753e-08  3.939226e-01  9.191437e-01
    outer loop
      vertex  -3.316790e-03  1.117560e-03  2.021050e-03
      vertex  -3.176510e-03  1.469610e-03  1.870170e-03
      vertex  -7.620000e-02  3.500000e-03  1.000000e-03
    endloop
  endfacet
  facet normal  7.580957e-08  3.939227e-01  9.191436e-01
    outer loop
      vertex  -7.620000e-02  3.500000e-03  1.000000e-03
      vertex  -3.176510e-03  1.469610e-03  1.870170e-03
      vertex  -2.999000e-03  1.804440e-03  1.726670e-03
    endloop
  endfacet
  facet normal -4.499642e-08  3.939272e-01  9.191416e-01
    outer loop
      vertex  -6.583500e-04 -3.430990e-03  3.970427e-03
      vertex  -1.380520e-03 -3.209253e-03  3.875395e-03
      vertex  -7.620000e-02 -3.500000e-03  4.000000e-03
    endloop
  endfacet
  facet normal  3.062619e-08  3.939229e-01  9.191436e-01
    outer loop
      vertex  -1.554520e-03  3.134400e-03  1.156685e-03
      vertex  -1.206520e-03  3.284105e-03  1.092525e-03
      vertex  -7.620000e-02  3.500000e-03  1.000000e-03
    endloop
  endfacet
  facet normal -3.109828e-08  3.939242e-01  9.191429e-01
    outer loop
      vertex  -7.620000e-02 -3.500000e-03  4.000000e-03
      vertex  -1.380520e-03 -3.209253e-03  3.875395e-03
      vertex  -2.075073e-03 -2.807762e-03  3.703325e-03
    endloop
  endfacet
  facet normal -8.244087e-07  3.939081e-01  9.191499e-01
    outer loop
      vertex  -3.246650e-03 -1.293585e-03  3.054390e-03
      vertex  -3.418170e-03 -7.523970e-04  2.822460e-03
      vertex  -7.620000e-02  3.500000e-03  1.000000e-03
    endloop
  endfacet
  facet normal  3.566070e-07  3.939253e-01  9.191425e-01
    outer loop
      vertex  -7.620000e-02  3.500000e-03  1.000000e-03
      vertex  -3.418170e-03 -7.523970e-04  2.822460e-03
      vertex  -3.479480e-03 -3.784170e-04  2.662180e-03
    endloop
  endfacet
  facet normal  1.337351e-07  3.939333e-01  9.191391e-01
    outer loop
      vertex  -2.265850e-03  2.667570e-03  1.356760e-03
      vertex  -1.884295e-03  2.947955e-03  1.236590e-03
      vertex  -7.620000e-02  3.500000e-03  1.000000e-03
    endloop
  endfacet
  facet normal  8.839487e-09  3.939191e-01  9.191451e-01
    outer loop
      vertex  -7.620000e-02  3.500000e-03  1.000000e-03
      vertex  -1.884295e-03  2.947955e-03  1.236590e-03
      vertex  -1.554520e-03  3.134400e-03  1.156685e-03
    endloop
  endfacet
  facet normal  1.580418e-07  3.939220e-01  9.191439e-01
    outer loop
      vertex  -3.479480e-03 -3.784170e-04  2.662180e-03
      vertex  -3.500000e-03  8.673620e-19  2.500000e-03
      vertex  -7.620000e-02  3.500000e-03  1.000000e-03
    endloop
  endfacet
  facet normal  1.572188e-07  3.939220e-01  9.191439e-01
    outer loop
      vertex  -3.500000e-03  8.673620e-19  2.500000e-03
      vertex  -3.479480e-03  3.784170e-04  2.337820e-03
      vertex  -7.620000e-02  3.500000e-03  1.000000e-03
    endloop
  endfacet
  facet normal  3.128645e-07  3.939250e-01  9.191425e-01
    outer loop
      vertex  -7.620000e-02  3.500000e-03  1.000000e-03
      vertex  -3.479480e-03  3.784170e-04  2.337820e-03
      vertex  -3.418170e-03  7.523970e-04  2.177540e-03
    endloop
  endfacet
endsolid vcg
